<svg width="25" height="25" viewBox="0 0 25 25" fill="none" xmlns="http://www.w3.org/2000/svg">
<g clip-path="url(#clip0)">
<path d="M4.26096 19.1398L18.4414 4.95938C19.5175 3.88622 21.2593 3.88622 22.3357 4.95938L24.0007 6.62436C24.5662 5.55738 24.3711 4.24663 23.5191 3.39062L21.6477 1.51923C20.5713 0.446064 18.8295 0.446064 17.7533 1.51923L3.57293 15.6996L0.690186 24.3411L2.75428 23.6531L4.26096 19.1398Z" fill="#FF7272"/>
<path d="M17.0172 2.25533C16.7493 1.98764 16.3149 1.98764 16.047 2.25533C15.779 2.52329 15.779 2.9576 16.047 3.22556L21.8057 8.98432C21.935 9.1144 22.1113 9.18643 22.2943 9.18401C22.4768 9.1832 22.6521 9.11171 22.783 8.98432C22.9117 8.85585 22.984 8.68116 22.984 8.4992C22.984 8.31725 22.9117 8.14283 22.783 8.01436L17.0172 2.25533Z" fill="#CF0000"/>
<path d="M22.129 1.0309C20.7849 -0.310757 18.6085 -0.310757 17.2644 1.0309L3.05658 15.2387C3.04986 15.2455 3.04986 15.2524 3.04287 15.2524C3.02916 15.2731 3.00847 15.2936 2.99476 15.3143C2.99476 15.3213 2.98778 15.3213 2.98778 15.328C2.97407 15.3487 2.96735 15.3624 2.95337 15.3831C2.94665 15.3901 2.94665 15.3968 2.93967 15.4038C2.93295 15.4245 2.92596 15.4382 2.91897 15.4589C2.91897 15.4656 2.91225 15.4656 2.91225 15.4726L0.0362325 24.1211C-0.0481586 24.3672 0.0160754 24.64 0.201252 24.8228C0.331602 24.9513 0.507103 25.023 0.689861 25.0225C0.764577 25.0211 0.838487 25.0096 0.909977 24.9881L9.55175 22.1051C9.55846 22.1051 9.55846 22.1051 9.56545 22.0984C9.58722 22.0919 9.60818 22.0828 9.62727 22.0707C9.63264 22.0701 9.63748 22.0677 9.64124 22.064C9.66167 22.0502 9.68935 22.0363 9.71005 22.0226C9.73047 22.0089 9.75117 21.9882 9.77186 21.9745C9.77885 21.9675 9.78557 21.9675 9.78557 21.9607C9.79256 21.9538 9.80626 21.947 9.81325 21.9331L23.9934 7.75291C25.3351 6.40883 25.3351 4.2324 23.9934 2.88859L22.129 1.0309ZM1.777 23.2543L3.86851 16.9725L8.05179 21.1558L1.777 23.2543ZM23.0234 6.78967L9.33163 20.4882L4.54283 15.6997L18.2416 2.00087C19.0474 1.19592 20.353 1.19592 21.1588 2.00087L23.0301 3.87226C23.8297 4.6815 23.8268 5.98419 23.0234 6.78967Z" fill="#CF0000"/>
</g>
<defs>
<clipPath id="clip0">
<rect width="25" height="25" fill="white"/>
</clipPath>
</defs>
</svg>
