<svg width="20" height="20" viewBox="0 0 20 20" fill="none" xmlns="http://www.w3.org/2000/svg">
<path d="M19.8169 10.0541C19.695 10.1831 19.5349 10.248 19.3751 10.248C19.2153 10.248 19.0552 10.1831 18.9333 10.0541L18.4376 9.52962V17.9364C18.4376 18.9845 17.6313 19.8376 16.6407 19.8376H3.35931C2.36868 19.8376 1.56242 18.9845 1.56242 17.9364V9.52962L1.06671 10.0541C0.822957 10.3124 0.42686 10.3124 0.183107 10.0541C-0.0610358 9.79579 -0.0610358 9.37711 0.183107 9.11879L7.95584 0.894303C9.08319 -0.298101 10.9168 -0.298101 12.0442 0.894303L19.8169 9.11879C20.061 9.37711 20.061 9.79579 19.8169 10.0541Z" fill="#E2E0E0"/>
<path d="M13.1251 13.3073V19.8376C13.1251 20.203 12.8454 19.8376 12.5001 19.8376H7.50001C7.15469 19.8376 6.875 20.203 6.875 19.8376V13.3073C6.875 12.1678 7.75118 11.2407 8.82814 11.2407H11.1719C12.2489 11.2407 13.1251 12.1678 13.1251 13.3073Z" fill="white"/>
<path d="M19.8169 10.0541C19.695 10.1831 19.5349 10.248 19.3751 10.248C19.2153 10.248 19.0552 10.1831 18.9333 10.0541L18.4376 9.52963V17.9364C18.4376 18.9845 17.6313 19.8376 16.6407 19.8376H16.4395C16.7106 19.5045 16.8751 19.0709 16.8751 18.5977V8.32069L10.4817 1.55561C9.85509 0.892659 9.01016 0.598382 8.18945 0.672778C9.32384 -0.292718 10.9918 -0.218735 12.0442 0.894313L19.8169 9.1188C20.0611 9.37712 20.0611 9.7958 19.8169 10.0541Z" fill="#CECCCC"/>
<path d="M13.125 13.3073V19.1763C13.125 19.5417 12.8453 19.8376 12.5 19.8376H11.25C11.5953 19.8376 11.875 19.5417 11.875 19.1763V13.3073C11.875 12.1678 10.9988 11.2407 9.92188 11.2407H11.1719C12.2489 11.2407 13.125 12.1678 13.125 13.3073Z" fill="white"/>
</svg>
