<svg width="20" height="20" viewBox="0 0 20 20" fill="none" xmlns="http://www.w3.org/2000/svg">
<path d="M20 15.1562V17.4219C20 18.8457 18.8457 20 17.4219 20H14.375V19.9871H2.57812C1.1543 19.9871 0 18.8328 0 17.409V15.1562C0 14.7246 0.349609 14.375 0.78125 14.375H19.2188C19.6504 14.375 20 14.7246 20 15.1562Z" fill="#CECCCC"/>
<path d="M20 4.84375V16.1848C20 17.6086 18.8457 18.7629 17.4219 18.7629H14.375V18.75H2.57812C1.1543 18.75 0 17.5957 0 16.1719V4.84375C0 4.41211 0.349609 4.0625 0.78125 4.0625H19.2188C19.6504 4.0625 20 4.41211 20 4.84375Z" fill="#E2E0E0"/>
<path d="M15 8.75H5C4.6548 8.75 4.375 8.47016 4.375 8.125C4.375 7.77984 4.6548 7.5 5 7.5H15C15.3452 7.5 15.625 7.77984 15.625 8.125C15.625 8.47016 15.3452 8.75 15 8.75Z" fill="#CECCCC"/>
<path d="M13.75 11.875H6.25C5.9048 11.875 5.625 11.5952 5.625 11.25C5.625 10.9048 5.9048 10.625 6.25 10.625H13.75C14.0952 10.625 14.375 10.9048 14.375 11.25C14.375 11.5952 14.0952 11.875 13.75 11.875Z" fill="#CECCCC"/>
<path d="M20 2.57812V5.625H0V2.57812C0 1.15426 1.15426 0 2.57812 0H17.4219C18.8457 0 20 1.15426 20 2.57812Z" fill="#CECCCC"/>
<path d="M20 13.75L15 18.75V15.5469C15 14.5543 15.8043 13.75 16.7969 13.75H20Z" fill="#CECCCC"/>
</svg>
