<svg width="25" height="25" viewBox="0 0 25 25" fill="none" xmlns="http://www.w3.org/2000/svg">
<path d="M22.2588 22.6579C18.4333 25.7807 6.48859 25.7807 2.74121 22.6579C-1.08423 19.5351 -0.69389 6.18507 2.74121 2.67192C6.17631 -0.841241 18.8237 -0.841241 22.2588 2.67192C25.6939 6.18507 26.0842 19.5351 22.2588 22.6579Z" fill="#CF0000"/>
<path d="M12.5781 17.1932C9.14298 19.9256 5.31754 21.3309 1.72633 21.409C-0.928083 16.8809 -0.381568 5.87301 2.74124 2.67214C5.55177 -0.216443 14.3737 -0.762958 19.4483 1.03265C20.6974 6.18529 18.1211 12.7431 12.5781 17.1932Z" fill="#FF6A6A"/>
<path d="M14.2175 15.7097H10.8605V14.0702C10.8605 13.4456 10.9385 12.9772 11.0947 12.743C11.2508 12.4307 11.5631 12.0404 12.1096 11.4939L13.5929 9.93247C13.8272 9.69825 13.9052 9.3079 13.9052 8.91756C13.9052 8.52721 13.8272 8.13687 13.5149 7.90264C13.2807 7.59035 12.9684 7.51229 12.578 7.51229C12.1877 7.51229 11.8754 7.66841 11.6412 7.9807C11.4069 8.29298 11.2508 8.76139 11.1728 9.3079H7.65961C7.81572 7.82458 8.36224 6.65349 9.2991 5.8728C10.236 5.09211 11.3289 4.62366 12.7342 4.62366C14.1395 4.62366 15.2324 5.014 16.0912 5.71663C16.95 6.49732 17.4184 7.51224 17.4184 8.83944C17.4184 9.46402 17.3404 9.85436 17.1842 10.1666C17.0281 10.4789 16.95 10.6351 16.8719 10.7912C16.7939 10.9473 16.6377 11.1035 16.4816 11.3377C16.2474 11.572 16.0912 11.7281 16.0132 11.8061C15.6228 12.1965 15.3105 12.5088 14.9983 12.8211C14.686 13.1333 14.4517 13.3676 14.3737 13.6017C14.2956 13.836 14.2176 14.0701 14.2176 14.4605V15.7097H14.2175ZM10.6263 18.5202C10.6263 17.4272 11.485 16.5684 12.5781 16.5684C13.6711 16.5684 14.5299 17.4272 14.5299 18.5202C14.5299 19.6132 13.6711 20.472 12.5781 20.472C11.485 20.472 10.6263 19.6132 10.6263 18.5202Z" fill="white"/>
</svg>
