<svg width="20" height="20" viewBox="0 0 20 20" fill="none" xmlns="http://www.w3.org/2000/svg">
<g clip-path="url(#clip0)">
<path d="M10 19.9998C4.47327 19.9998 0 15.5211 0 10C0 4.47311 4.4725 0 10 0C15.5269 0 19.9998 4.4725 19.9998 10C19.9998 15.5264 15.5206 19.9998 10 19.9998Z" fill="#940000"/>
<path d="M10 0V19.9998C15.5206 19.9998 19.9998 15.5264 19.9998 10C19.9998 4.47266 15.5269 0 10 0V0Z" fill="#CF0000"/>
<path d="M10 12.3438C7.0903 12.3438 4.31595 13.6157 2.28836 16.366C6.32599 21.2465 13.7996 21.2048 17.7827 16.2788C16.7992 15.3004 14.5837 12.3438 10 12.3438Z" fill="#FF0000"/>
<path d="M17.7827 16.2788C15.9023 18.6041 13.0808 19.9998 10 19.9998V12.3438C14.5839 12.3438 16.7992 15.3007 17.7827 16.2788V16.2788Z" fill="#FF6A6A"/>
<path d="M10 10.5859C8.06137 10.5859 6.48438 9.00879 6.48438 7.07031V5.89844C6.48438 3.95996 8.06137 2.38281 10 2.38281C11.9385 2.38281 13.5156 3.95996 13.5156 5.89844V7.07031C13.5156 9.00879 11.9385 10.5859 10 10.5859Z" fill="#FF0000"/>
<path d="M10 2.38281V10.5859C11.9386 10.5859 13.5156 9.00894 13.5156 7.07031V5.89844C13.5156 3.95981 11.9386 2.38281 10 2.38281Z" fill="#FF6A6A"/>
</g>
<defs>
<clipPath id="clip0">
<rect width="20" height="20" fill="white"/>
</clipPath>
</defs>
</svg>
