<svg width="20" height="25" viewBox="0 0 20 25" fill="none" xmlns="http://www.w3.org/2000/svg">
<path d="M9.99996 25C9.78945 25 9.57678 24.9455 9.39234 24.8355C3.51125 21.3334 0 15.3981 0 8.95847V3.97127C0 3.47594 0.390592 3.05391 0.926664 2.97066C3.90406 2.51096 6.76864 1.55789 9.44011 0.138223C9.78737 -0.0460744 10.2127 -0.0460744 10.5599 0.138223C13.2335 1.5589 16.0981 2.51198 19.0733 2.97066C19.6093 3.0529 20 3.47594 20 3.97127V8.95847C20 15.3981 16.4888 21.3334 10.6077 24.8355C10.4231 24.9455 10.2104 25 9.99996 25V25Z" fill="#FF6A6A"/>
<path d="M10.6076 24.8359C16.4887 21.3338 19.9999 15.3984 19.9999 8.95884V3.97165C19.9999 3.47631 19.6093 3.05327 19.0732 2.97103C16.098 2.51235 13.2334 1.55928 10.5598 0.1386C10.3862 0.0464847 10.1931 0.000427246 9.99988 0.000427246V25.0004C10.2104 25.0004 10.4231 24.9459 10.6076 24.8359Z" fill="#CF0000"/>
<path d="M12.0334 15.5586L9.99997 14.4242L7.96657 15.5586C7.58242 15.7715 7.09635 15.7527 6.73391 15.513C6.37147 15.2722 6.20221 14.8551 6.30643 14.4569L6.85983 12.3418L5.04992 10.926C4.70918 10.6596 4.57681 10.2315 4.71569 9.84222C4.85458 9.45191 5.23651 9.17645 5.68354 9.14378L8.05768 8.97044L8.97345 6.96231C9.32071 6.20544 10.6792 6.20544 11.0264 6.96231L11.9422 8.97044L14.3163 9.14378C14.7634 9.17645 15.1453 9.45191 15.2842 9.84222C15.4231 10.2316 15.2907 10.6596 14.9499 10.926L13.14 12.3418L13.6934 14.4569C13.7976 14.8552 13.6283 15.2723 13.266 15.513C12.9053 15.7535 12.4179 15.7726 12.0334 15.5586V15.5586Z" fill="#F0F7FF"/>
<path d="M12.0334 15.5585C12.4179 15.7725 12.9052 15.7535 13.266 15.513C13.6285 15.2722 13.7977 14.8551 13.6935 14.4569L13.1401 12.3418L14.95 10.926C15.2908 10.6595 15.4231 10.2315 15.2843 9.84221C15.1454 9.4519 14.7634 9.17644 14.3164 9.14377L11.9423 8.97043L11.0265 6.9623C10.8529 6.58383 10.4264 6.39459 10.0001 6.39459V14.4243L12.0334 15.5585Z" fill="#DFE7F4"/>
</svg>
