<svg width="124" height="126" viewBox="0 0 124 126" fill="none" xmlns="http://www.w3.org/2000/svg">
<g clip-path="url(#clip0)">
<path d="M24.3539 108.777L23.6632 121.385C23.5629 123.223 25.002 124.769 26.8138 124.769H37.6926V108.802H24.7096C24.5895 108.802 24.4712 108.793 24.3539 108.777Z" fill="#F9D8B7"/>
<path d="M100.844 121.385L100.152 108.771C100.023 108.79 99.8912 108.802 99.7568 108.802H86.8145V124.769H97.6933C99.5052 124.769 100.944 123.222 100.844 121.385Z" fill="#F9D8B7"/>
<path d="M99.7568 102.86C99.7805 102.86 99.8042 102.863 99.8288 102.864L98.5392 79.3361C98.3651 76.1606 96.1795 73.4696 93.1442 72.6937L83.2419 70.1604C81.5237 69.7211 79.8244 69.2115 78.1478 68.6318L73.7672 66.4369L72.8854 65.9956C71.4879 65.2948 70.6023 63.8488 70.6023 62.2654V58.8466C68.6221 60.6935 66.3929 62.2202 63.9888 63.345C62.8458 63.8796 61.5326 63.8796 60.3887 63.345C58.0338 62.2423 55.8501 60.755 53.9038 58.9639V62.2654C53.9038 63.8488 53.0192 65.2957 51.6208 65.9956L50.9727 66.3206L46.6138 68.5049C44.7679 69.1692 42.8917 69.7451 40.9927 70.2306L31.3629 72.6937C28.3277 73.4706 26.1421 76.1615 25.968 79.3371L24.6784 102.862C24.6888 102.862 24.6992 102.861 24.7096 102.861H37.6926V124.77H86.8145L86.8136 108.802V102.86H99.7568Z" fill="#F9D8B7"/>
<path d="M99.7568 102.86C99.7805 102.86 99.8042 102.863 99.8288 102.864L98.5392 79.3361C98.3651 76.1606 96.1795 73.4696 93.1442 72.6937L83.2419 70.1604C81.5237 69.7211 79.8244 69.2115 78.1478 68.6318L74.2923 66.7003L71.2363 70.9748C69.1472 73.8965 65.8082 75.626 62.2545 75.626C58.6998 75.626 55.3609 73.8965 53.2718 70.9748L50.2158 66.7003L46.6138 68.5049C44.7679 69.1683 42.8926 69.7442 40.9937 70.2306L31.3629 72.6937C28.3286 73.4696 26.143 76.1615 25.968 79.3361L24.6784 102.862C24.6897 102.862 24.6992 102.86 24.7105 102.86H37.6926V124.769H86.8155L86.8145 108.802V102.86H99.7568Z" fill="#FF7272"/>
<path d="M79.6844 29.5642C79.4185 29.5642 79.1583 29.5834 78.901 29.6132L79.4393 34.8903C79.7374 37.7313 79.6058 40.5732 79.0893 43.3247C79.2861 43.3421 79.4838 43.3555 79.6844 43.3555C83.4321 43.3555 86.4701 40.2684 86.4701 36.4594C86.4701 32.6512 83.4321 29.5642 79.6844 29.5642Z" fill="#F9D8B7"/>
<path d="M44.9391 34.8913L45.5021 30.2381L45.5664 29.6132C45.3091 29.5834 45.0479 29.5642 44.783 29.5642C41.0344 29.5642 37.9963 32.6522 37.9963 36.4603C37.9963 40.2684 41.0344 43.3555 44.783 43.3555C44.9543 43.3555 45.1227 43.344 45.2901 43.3296C44.7726 40.5771 44.6411 37.7332 44.9391 34.8913Z" fill="#F9D8B7"/>
<path d="M79.4393 34.8913C79.146 32.5349 78.8546 29.7257 78.7893 26.8472C78.7893 23.5611 76.0616 21.3067 73.1342 21.374C70.1529 21.2019 64.0702 25.0302 53.0655 21.3163C49.1731 20.002 45.6771 23.0785 45.6771 26.9136C45.6771 29.7978 45.3176 31.4543 44.9391 34.8913C43.6268 47.4223 50.527 58.7313 60.3887 63.3451C61.5326 63.8796 62.8458 63.8796 63.9888 63.3451C73.8079 58.7505 80.7564 47.4742 79.4393 34.8913Z" fill="#F9D8B7"/>
<path d="M44.7821 29.5642C45.046 29.5642 45.3043 29.5834 45.5598 29.6122C45.6326 28.7768 45.6771 27.9202 45.6771 26.9126C45.6771 23.0776 49.1731 20.002 53.0665 21.3153C64.0711 25.0292 70.1529 21.2009 73.1342 21.373C76.0625 21.3057 78.7893 23.5612 78.7893 26.8463C78.8111 27.7798 78.8575 28.7047 78.919 29.6113C79.1706 29.5824 79.4251 29.5632 79.6844 29.5632C80.5605 29.5632 81.395 29.7382 82.1642 30.0449C83.1804 26.4252 85.2799 16.5958 79.9446 11.2859C79.9446 11.2859 78.18 6.45295 71.118 5.57423C67.1319 5.07814 64.4448 3.29858 63.4391 1.85647C63.1666 1.46614 62.721 1.24502 62.2507 1.23541V1.23252C62.2451 1.23252 62.2394 1.23444 62.2337 1.23444C62.228 1.23444 62.2223 1.23252 62.2167 1.23252V1.23637C61.7464 1.24598 61.3008 1.4671 61.0283 1.85743C60.0226 3.29954 57.3355 5.0791 53.3494 5.57519C46.2883 6.45391 44.5228 11.2869 44.5228 11.2869C39.1875 16.5977 41.287 26.429 42.3032 30.0468C43.0714 29.7391 43.9059 29.5642 44.7821 29.5642Z" fill="#515050"/>
<path d="M71.6412 78.5208C73.4379 77.3498 75.0331 75.8423 76.3208 74.0407L79.8055 69.1673C79.252 68.9923 78.6966 68.8212 78.1469 68.6318L74.2914 66.7003L71.2363 70.9748C70.2939 72.2909 69.097 73.3638 67.7431 74.1464L71.6412 78.5208Z" fill="#E8E6E6"/>
<path d="M52.6899 78.4093L56.5824 74.0407C55.3022 73.2677 54.1706 72.2323 53.2718 70.9748L50.2158 66.7003L46.6138 68.5049C45.977 68.7337 45.3365 68.9481 44.6941 69.1558L48.1863 74.0407C49.4324 75.7847 50.9642 77.2537 52.6899 78.4093Z" fill="#E8E6E6"/>
<path d="M99.7569 102.86H86.8136V108.802H99.7569C101.364 108.802 102.68 107.465 102.68 105.831C102.68 104.197 101.364 102.86 99.7569 102.86Z" fill="#E8E6E6"/>
<path d="M37.6926 102.86H24.7105C23.1021 102.86 21.786 104.197 21.786 105.831C21.786 107.465 23.1021 108.802 24.7105 108.802H37.6926V102.86Z" fill="#E8E6E6"/>
<path d="M62.0757 52.7071C59.9289 52.7071 57.9278 51.6274 56.7253 49.8171C56.3506 49.2537 56.4963 48.4894 57.0507 48.1087C57.6042 47.728 58.3583 47.876 58.732 48.4394C59.4842 49.57 60.735 50.2459 62.0766 50.2459C63.4173 50.2459 64.6681 49.57 65.4203 48.4394C65.7941 47.876 66.5472 47.728 67.1016 48.1087C67.6561 48.4894 67.8018 49.2537 67.4271 49.8171C66.2227 51.6274 64.2225 52.7071 62.0757 52.7071Z" fill="#231F20"/>
<path d="M71.0707 35.6883C70.8796 35.6883 70.6847 35.6422 70.503 35.5441C70.1983 35.3797 69.4991 35.2134 68.624 35.2134C67.7497 35.2134 67.0496 35.3797 66.7449 35.5441C66.1545 35.8633 65.4222 35.6354 65.1072 35.0355C64.793 34.4356 65.0173 33.6905 65.6077 33.3713C66.3362 32.9771 67.4356 32.7522 68.624 32.7522C69.8133 32.7522 70.9127 32.9771 71.6412 33.3713C72.2316 33.6905 72.4558 34.4356 72.1408 35.0355C71.9232 35.4508 71.504 35.6883 71.0707 35.6883Z" fill="#231F20"/>
<path d="M57.9136 35.6883C57.7215 35.6883 57.5266 35.6422 57.3459 35.5441C57.0413 35.3797 56.3421 35.2134 55.4669 35.2134C54.5917 35.2134 53.8925 35.3797 53.5878 35.5441C52.9974 35.8633 52.2642 35.6354 51.9501 35.0355C51.6359 34.4356 51.8602 33.6905 52.4506 33.3713C53.1781 32.9771 54.2776 32.7522 55.4669 32.7522C56.6552 32.7522 57.7556 32.9771 58.4832 33.3713C59.0736 33.6905 59.2978 34.4356 58.9837 35.0355C58.7661 35.4508 58.3469 35.6883 57.9136 35.6883Z" fill="#231F20"/>
<path d="M55.6618 40.4982C54.8585 40.4982 54.2085 39.8368 54.2085 39.0215V38.7494C54.2085 37.9332 54.8585 37.2727 55.6618 37.2727C56.4641 37.2727 57.1151 37.9332 57.1151 38.7494V39.0215C57.1151 39.8368 56.4641 40.4982 55.6618 40.4982Z" fill="#231F20"/>
<path d="M68.4906 40.7068C67.6873 40.7068 67.0373 40.0454 67.0373 39.2301V38.958C67.0373 38.1418 67.6873 37.4813 68.4906 37.4813C69.2929 37.4813 69.9438 38.1418 69.9438 38.958V39.2301C69.9438 40.0454 69.2929 40.7068 68.4906 40.7068Z" fill="#231F20"/>
<path d="M79.6844 44.5861C79.4479 44.5861 79.2142 44.5717 78.9833 44.5515C78.6427 44.5207 78.3295 44.3448 78.1233 44.0669C77.917 43.7901 77.8356 43.4363 77.9 43.095C78.4033 40.4146 78.5159 37.6986 78.2349 35.0211L77.6965 29.7401C77.6275 29.069 78.1034 28.4682 78.7628 28.3903C79.0949 28.3518 79.3968 28.3326 79.6844 28.3326C84.0944 28.3326 87.6812 31.9782 87.6812 36.4594C87.6812 40.9405 84.0944 44.5861 79.6844 44.5861ZM80.2417 30.8226L80.6447 34.7644C80.8973 37.1823 80.8567 39.632 80.5227 42.0615C83.2003 41.65 85.26 39.2945 85.26 36.4603C85.2591 33.5271 83.0546 31.1082 80.2417 30.8226Z" fill="#231F20"/>
<path d="M44.7821 44.5861C40.373 44.5861 36.7852 40.9414 36.7852 36.4603C36.7852 31.9792 40.373 28.3336 44.7821 28.3336C45.0706 28.3336 45.3715 28.3528 45.7036 28.3912C46.3631 28.4682 46.839 29.07 46.7699 29.7411L46.7065 30.366L46.1417 35.0317C45.8626 37.7073 45.9761 40.4213 46.4794 43.0998C46.5438 43.443 46.4615 43.7978 46.2533 44.0766C46.0442 44.3544 45.7292 44.5294 45.3867 44.5573C45.187 44.5726 44.9864 44.5861 44.7821 44.5861ZM44.2106 30.8236C41.4043 31.1159 39.2064 33.5319 39.2064 36.4594C39.2064 39.2628 41.2198 41.5971 43.8539 42.047C43.5218 39.6205 43.4811 37.1766 43.7347 34.7606C43.7347 34.7538 43.7356 34.7471 43.7366 34.7404L44.2106 30.8236Z" fill="#231F20"/>
<path d="M62.1892 64.9765C61.402 64.9765 60.6148 64.8054 59.8825 64.4622C49.0738 59.4052 42.4337 47.1915 43.7347 34.7606C43.8454 33.7597 43.9532 32.9127 44.0516 32.1417C44.2929 30.2544 44.466 28.8902 44.466 26.9136C44.466 24.5802 45.556 22.3882 47.3821 21.05C49.1315 19.7665 51.3426 19.4386 53.4478 20.1482C61.1333 22.742 66.287 21.5076 69.6978 20.6914C71.082 20.3597 72.1796 20.0953 73.1531 20.1434C74.9858 20.1145 76.7608 20.8308 78.0532 22.1142C79.3088 23.3621 80.0004 25.0427 80.0004 26.8472C80.0695 29.8574 80.3997 32.7926 80.6419 34.7365C80.6428 34.7452 80.6438 34.7529 80.6438 34.7606C81.9457 47.1915 75.3047 59.4052 64.4959 64.4632C63.7627 64.8054 62.9755 64.9765 62.1892 64.9765ZM51.2338 22.2383C50.3624 22.2383 49.5279 22.5103 48.7994 23.0449C47.6025 23.9226 46.8882 25.3676 46.8882 26.9126C46.8882 29.0488 46.6971 30.5534 46.4539 32.458C46.3564 33.2156 46.2505 34.0491 46.1426 35.0278C44.9505 46.4176 51.0172 57.6045 60.8958 62.2269C61.718 62.6115 62.6614 62.6115 63.4826 62.2269C73.3585 57.6064 79.4232 46.4243 78.2368 35.0326C77.9879 33.0348 77.6511 30.0208 77.5792 26.8751C77.5792 25.3897 76.916 24.4255 76.3606 23.8736C75.5213 23.0391 74.3661 22.5815 73.1617 22.6036C73.1295 22.6046 73.0973 22.6036 73.0652 22.6026C72.4331 22.5661 71.4226 22.8074 70.2542 23.0862C66.8007 23.913 61.0217 25.2965 52.6852 22.4834C52.197 22.32 51.7097 22.2383 51.2338 22.2383Z" fill="#231F20"/>
<path d="M86.8145 125.31C86.1456 125.31 85.6035 124.76 85.6035 124.08V96.8452C85.6035 96.1655 86.1456 95.6146 86.8145 95.6146C87.4834 95.6146 88.0256 96.1655 88.0256 96.8452V124.08C88.0256 124.76 87.4834 125.31 86.8145 125.31Z" fill="#231F20"/>
<path d="M37.6926 125.31C37.0237 125.31 36.4815 124.76 36.4815 124.08V96.8452C36.4815 96.1655 37.0237 95.6146 37.6926 95.6146C38.3615 95.6146 38.9037 96.1655 38.9037 96.8452V124.08C38.9037 124.76 38.3615 125.31 37.6926 125.31Z" fill="#231F20"/>
<path d="M42.3022 31.2764C42.1186 31.2764 41.9351 31.2341 41.7657 31.1486C41.4592 30.9957 41.2312 30.7169 41.1375 30.3833C39.9974 26.3242 37.9679 16.3323 43.5029 10.5812C44.0261 9.43907 46.4047 5.19831 53.2018 4.35324C56.6637 3.92253 59.1729 2.38812 60.0396 1.14503C60.4994 0.485503 61.2469 0.0682534 62.0587 0.0115305C62.1154 0.00383923 62.1712 -0.00289062 62.2337 0.000955017C62.2933 -0.000967793 62.352 0.00383923 62.4097 0.0115305C63.2215 0.0692148 63.967 0.485503 64.4269 1.14407C65.2945 2.38812 67.8036 3.92253 71.2646 4.35324C78.0627 5.19831 80.4413 9.43907 80.9645 10.5812C86.4985 16.3314 84.469 26.3233 83.328 30.3833C83.2343 30.7169 83.0063 30.9947 82.7007 31.1486C82.3941 31.3024 82.0384 31.3178 81.7205 31.1899C81.062 30.9274 80.377 30.7938 79.6834 30.7938C79.4952 30.7938 79.2898 30.8073 79.0533 30.8342C78.725 30.8717 78.3957 30.7717 78.1422 30.5563C77.8886 30.3419 77.7315 30.0304 77.7098 29.6949C77.6417 28.6797 77.5981 27.7567 77.5783 26.8751C77.5783 25.3888 76.915 24.4254 76.3596 23.8736C75.5204 23.0391 74.3652 22.5728 73.1607 22.6036C73.1285 22.6045 73.0964 22.6036 73.0642 22.6026C72.4322 22.5661 71.4217 22.8074 70.2532 23.0862C66.7998 23.913 61.0198 25.2965 52.6833 22.4834C51.3048 22.0181 49.9262 22.2181 48.7984 23.0449C47.6016 23.9217 46.8872 25.3676 46.8872 26.9126C46.8872 27.8759 46.8484 28.7681 46.7652 29.7218C46.7358 30.0526 46.5769 30.3564 46.3243 30.5659C46.0716 30.7755 45.7443 30.8717 45.4216 30.8351C45.1842 30.8082 44.9751 30.7948 44.7811 30.7948C44.0885 30.7948 43.4035 30.9274 42.745 31.1909C42.6031 31.2476 42.4526 31.2764 42.3022 31.2764ZM62.2337 2.46696C62.14 2.4708 62.0577 2.50926 62.0161 2.56887C60.9006 4.16865 57.9997 6.23663 53.497 6.79617C47.3187 7.56529 45.7187 11.5542 45.6544 11.7234C45.5919 11.8858 45.4926 12.0435 45.3696 12.1647C40.97 16.5448 42.2502 24.7225 43.1547 28.5047C43.5767 28.4153 44.0024 28.3605 44.4329 28.3413C44.4556 27.8711 44.466 27.402 44.466 26.9126C44.466 24.5793 45.556 22.3873 47.3811 21.049C49.1305 19.7665 51.3426 19.4377 53.4468 20.1482C61.1324 22.742 66.287 21.5076 69.6978 20.6904C71.0811 20.3597 72.1786 20.0953 73.1531 20.1424C74.9773 20.102 76.7608 20.8298 78.0532 22.1142C79.3088 23.3612 80.0004 25.0417 80.0004 26.8472C80.0108 27.3202 80.0297 27.8173 80.0562 28.3422C80.4791 28.3624 80.8973 28.4162 81.3108 28.5047C82.2172 24.7216 83.4964 16.5438 79.0968 12.1647C78.97 12.0377 78.8716 11.8839 78.8092 11.7138C78.7477 11.5542 77.1487 7.56433 70.9704 6.79617C66.4667 6.23567 63.5668 4.16865 62.4504 2.56791C62.4097 2.50926 62.3274 2.4708 62.2337 2.46696Z" fill="#231F20"/>
<path d="M86.8145 126H37.6926C37.0237 126 36.4815 125.449 36.4815 124.769V104.09H24.7408C24.7153 104.092 24.6973 104.092 24.6784 104.092C24.351 104.092 24.0359 103.957 23.8079 103.716C23.5733 103.47 23.4503 103.136 23.4692 102.792L24.7588 79.2678C24.9631 75.5347 27.4988 72.413 31.0677 71.5006L40.6975 69.0375C42.5283 68.5684 44.3601 68.0069 46.1416 67.3685L51.0853 64.8919C52.0768 64.3949 52.6928 63.3883 52.6928 62.2654V58.9639C52.6928 58.4774 52.9757 58.0362 53.4137 57.8391C53.8508 57.642 54.3618 57.7247 54.7166 58.0515C56.5994 59.785 58.6781 61.1896 60.8949 62.2269C61.7171 62.6115 62.6604 62.6115 63.4816 62.2269C65.7505 61.1655 67.8708 59.7225 69.783 57.9391C70.1368 57.6093 70.6496 57.5228 71.0886 57.7199C71.5286 57.916 71.8124 58.3582 71.8124 58.8466V62.2644C71.8124 63.3883 72.4284 64.3949 73.4199 64.891L78.6105 67.4916C80.2246 68.0473 81.8813 68.5443 83.5361 68.9673L93.4385 71.5006C97.0064 72.413 99.542 75.5337 99.7464 79.2678L101.036 102.795C101.055 103.14 100.931 103.476 100.694 103.723C100.457 103.969 100.134 104.097 99.7909 104.094C99.7786 104.093 99.7483 104.092 99.7265 104.09H88.0227L88.0237 124.769C88.0237 125.096 87.896 125.409 87.6689 125.639C87.4437 125.871 87.1362 126 86.8145 126ZM38.9036 123.539H85.6034V102.86C85.6034 102.18 86.1456 101.629 86.8145 101.629H98.5486L97.33 79.4044C97.1843 76.7528 95.3837 74.5348 92.8481 73.8869L82.9467 71.3535C81.2029 70.9075 79.4573 70.3835 77.758 69.7961C77.7079 69.7788 77.6596 69.7586 77.6123 69.7345L72.3508 67.0984C70.5257 66.1841 69.3922 64.3324 69.3922 62.2644V61.4741C67.8528 62.6576 66.2141 63.6585 64.4959 64.4622C63.0303 65.1486 61.349 65.1486 59.8834 64.4622C58.2145 63.6815 56.6183 62.7134 55.1158 61.5713V62.2654C55.1158 64.3334 53.9823 66.185 52.1572 67.0993L47.1493 69.6086C47.1067 69.6297 47.0632 69.649 47.0178 69.6644C45.1444 70.3393 43.2171 70.9305 41.2889 71.4237L31.659 73.8869C29.1243 74.5358 27.3228 76.7528 27.1781 79.4053L25.9594 101.63H37.6935C38.3624 101.63 38.9046 102.181 38.9046 102.861V123.539H38.9036ZM99.7568 104.09H99.7616H99.7568Z" fill="#231F20"/>
<path d="M97.6933 126H26.8138C25.6188 126 24.4617 125.494 23.6414 124.612C22.8201 123.73 22.3878 122.529 22.454 121.317L23.1447 108.709C23.1636 108.369 23.3207 108.052 23.5771 107.833C23.8344 107.616 24.1712 107.514 24.5024 107.557C24.5705 107.565 24.6396 107.572 24.7096 107.572H36.4815V104.091H24.7408C24.7153 104.092 24.6973 104.092 24.6784 104.092C24.351 104.092 24.0359 103.958 23.8079 103.717C23.5733 103.471 23.4503 103.136 23.4692 102.793L24.7588 79.2678C24.9632 75.5347 27.4988 72.413 31.0677 71.5006L40.6975 69.0375C42.5283 68.5693 44.3601 68.0079 46.1417 67.3695L49.6802 65.5966C50.2091 65.3313 50.8487 65.4928 51.195 65.9774L54.2511 70.2518C56.1055 72.8466 59.0972 74.3954 62.2536 74.3954C65.4099 74.3954 68.4007 72.8456 70.2561 70.2518L73.3121 65.9764C73.6584 65.4928 74.298 65.3313 74.8278 65.5966L78.6115 67.4925C80.2256 68.0473 81.8823 68.5443 83.5371 68.9673L93.4394 71.5006C97.0083 72.413 99.543 75.5347 99.7474 79.2678L101.038 102.796C101.057 103.14 100.933 103.476 100.696 103.723C100.459 103.969 100.13 104.097 99.7928 104.094C99.7805 104.094 99.7502 104.092 99.7285 104.091H88.0247V107.572H99.7568C99.8354 107.572 99.912 107.563 99.9886 107.552C100.325 107.507 100.662 107.603 100.922 107.823C101.184 108.041 101.343 108.36 101.362 108.703L102.052 121.317C102.119 122.529 101.686 123.73 100.866 124.613C100.044 125.494 98.8883 126 97.6933 126ZM25.4987 110.033L24.8723 121.453C24.8421 122.001 25.0303 122.522 25.4012 122.92C25.7712 123.318 26.2736 123.539 26.8138 123.539H97.6933C98.2336 123.539 98.735 123.319 99.1059 122.92C99.4768 122.521 99.6651 122 99.6348 121.453L99.0094 110.033H86.8145C86.1456 110.033 85.6035 109.482 85.6035 108.802V102.86C85.6035 102.18 86.1456 101.629 86.8145 101.629H98.5486L97.33 79.4043C97.1843 76.7528 95.3838 74.5348 92.849 73.8868L82.9467 71.3535C81.2029 70.9075 79.4573 70.3835 77.758 69.7961C77.7079 69.7788 77.6596 69.7586 77.6133 69.7345L74.6727 68.2617L72.2165 71.6968C69.9069 74.9271 66.1829 76.8547 62.2545 76.8547C58.3261 76.8547 54.6011 74.9271 52.2926 71.6968L49.8364 68.2617L47.1493 69.6076C47.1067 69.6288 47.0632 69.648 47.0187 69.6634C45.1444 70.3383 43.2171 70.9296 41.2898 71.4228L31.66 73.8859C29.1243 74.5348 27.3238 76.7518 27.1781 79.4043L25.9595 101.629H37.6935C38.3625 101.629 38.9046 102.179 38.9046 102.86V108.801C38.9046 109.482 38.3625 110.032 37.6935 110.032H25.4987V110.033Z" fill="#231F20"/>
<path d="M71.6412 79.7514C71.3081 79.7514 70.9798 79.612 70.7433 79.3467L66.8452 74.9723C66.5982 74.6954 66.4885 74.3195 66.5462 73.9513C66.6049 73.5821 66.8244 73.261 67.1432 73.0764C68.3789 72.3621 69.4263 71.4112 70.2551 70.2508L73.3111 65.9754C73.6584 65.4919 74.298 65.3303 74.8269 65.5957L78.6114 67.4916C79.0221 67.6319 79.4365 67.7617 79.8509 67.8925L80.165 67.9915C80.5378 68.1088 80.8311 68.402 80.9541 68.7789C81.0771 69.1548 81.0146 69.5682 80.7847 69.8893L77.3001 74.7636C75.9424 76.6634 74.2573 78.2766 72.295 79.5562C72.0934 79.688 71.8673 79.7514 71.6412 79.7514ZM69.5928 74.3887L71.8285 76.898C73.1806 75.8923 74.3595 74.6906 75.3406 73.3167L77.8384 69.8239C77.811 69.8143 77.7836 69.8057 77.7571 69.7961C77.7069 69.7788 77.6587 69.7586 77.6114 69.7345L74.6707 68.2617L72.2146 71.6968C71.4756 72.7332 70.5966 73.634 69.5928 74.3887Z" fill="#231F20"/>
<path d="M52.689 79.6399C52.4591 79.6399 52.2273 79.5726 52.0239 79.437C50.1448 78.1786 48.5231 76.6067 47.2061 74.7636L43.7139 69.8787C43.4858 69.5596 43.4225 69.1471 43.5436 68.7722C43.6647 68.3963 43.9561 68.103 44.326 67.9829C45.0271 67.756 45.6062 67.5608 46.1417 67.3685L49.6803 65.5957C50.2101 65.3303 50.8497 65.4919 51.196 65.9764L54.2511 70.2508C55.0439 71.3593 56.0365 72.2794 57.2012 72.9822C57.5143 73.1706 57.7263 73.4917 57.7802 73.857C57.8351 74.2214 57.7244 74.5916 57.4803 74.8656L53.5878 79.2342C53.3503 79.5005 53.0211 79.6399 52.689 79.6399ZM46.6479 69.7961L49.1656 73.3167C50.1089 74.6367 51.2319 75.7962 52.5111 76.7759L54.7497 74.2628C53.814 73.534 52.9908 72.6745 52.2916 71.6968L49.8354 68.2617L47.1484 69.6076C47.1058 69.6288 47.0623 69.648 47.0178 69.6644C46.8967 69.7076 46.7737 69.7518 46.6479 69.7961Z" fill="#231F20"/>
<path d="M99.7568 110.033H86.8136C86.1446 110.033 85.6025 109.482 85.6025 108.802V102.86C85.6025 102.18 86.1446 101.629 86.8136 101.629H99.7568C102.037 101.629 103.891 103.514 103.891 105.831C103.891 108.147 102.037 110.033 99.7568 110.033ZM88.0256 107.572H99.7568C100.701 107.572 101.469 106.791 101.469 105.831C101.469 104.871 100.701 104.09 99.7568 104.09H88.0256V107.572Z" fill="#231F20"/>
<path d="M37.6926 110.033H24.7105C22.4303 110.033 20.575 108.147 20.575 105.831C20.575 103.514 22.4303 101.629 24.7105 101.629H37.6926C38.3615 101.629 38.9037 102.18 38.9037 102.86V108.802C38.9037 109.482 38.3615 110.033 37.6926 110.033ZM24.7105 104.09C23.7654 104.09 22.9971 104.871 22.9971 105.831C22.9971 106.791 23.7654 107.572 24.7105 107.572H36.4815V104.09H24.7105Z" fill="#231F20"/>
<path d="M97.6933 126H86.8145C86.1456 126 85.6035 125.449 85.6035 124.769V108.802C85.6035 108.475 85.7312 108.163 85.9583 107.932C86.1853 107.701 86.4928 107.572 86.8145 107.572H99.7568C99.8363 107.572 99.9129 107.563 99.9886 107.551C100.325 107.506 100.662 107.603 100.923 107.822C101.184 108.04 101.344 108.36 101.361 108.703L102.053 121.317C102.119 122.529 101.687 123.73 100.866 124.612C100.044 125.494 98.8883 126 97.6933 126ZM88.0256 123.539H97.6933C98.2335 123.539 98.735 123.319 99.1059 122.921C99.4777 122.522 99.665 122.001 99.6357 121.453L99.0094 110.033H88.0256V123.539Z" fill="#231F20"/>
<path d="M37.6926 126H26.8138C25.6188 126 24.4627 125.494 23.6414 124.612C22.8201 123.73 22.3878 122.529 22.454 121.317L23.1447 108.709C23.1636 108.369 23.3207 108.052 23.5771 107.833C23.8344 107.616 24.1712 107.514 24.5024 107.557C24.5705 107.565 24.6396 107.572 24.7096 107.572H37.6926C38.3615 107.572 38.9037 108.122 38.9037 108.802V124.769C38.9037 125.449 38.3615 126 37.6926 126ZM25.4987 110.033L24.8723 121.453C24.8421 122.001 25.0303 122.522 25.4012 122.921C25.7712 123.319 26.2736 123.539 26.8138 123.539H36.4815V110.033H25.4987Z" fill="#231F20"/>
</g>
<defs>
<clipPath id="clip0">
<rect width="124" height="126" fill="white"/>
</clipPath>
</defs>
</svg>
