<svg width="124" height="126" viewBox="0 0 124 126" fill="none" xmlns="http://www.w3.org/2000/svg">
<path d="M65.178 86.0683C65.7108 84.394 66.9222 80.8493 69.9271 77.1075C72.0593 74.4975 74.6269 72.3309 77.5825 70.7066L75.3055 70.1152C73.6095 69.6728 71.8653 69.1805 70.2176 68.589L64.984 65.93C63.5796 65.2415 62.707 63.7643 62.707 62.1882V59.283C60.1876 60.9572 57.2803 61.942 54.1789 61.942C51.2233 61.942 48.4608 61.0563 45.9897 59.5292V62.2372C45.9897 63.8134 45.1171 65.2905 43.7127 65.98L43.0823 66.3243L38.7213 68.4909C36.8796 69.1304 34.9906 69.7219 33.1006 70.2142L23.4577 72.6761C20.4046 73.4637 18.2241 76.1227 18.0793 79.3232L15.7531 121.372C15.6565 123.193 17.1102 124.769 18.9027 124.769H86.7409C83.0584 124.276 76.5169 122.75 71.1385 117.433C61.5438 107.881 62.8527 93.2568 65.178 86.0683Z" fill="#FF7272"/>
<path d="M72.2041 29.7405V41.7056C72.2041 42.6413 72.1558 43.577 72.0101 44.5118C72.2524 44.5618 72.5439 44.5618 72.8344 44.5618C76.8557 44.5618 80.1511 41.2132 80.1511 37.1261C80.1028 32.7938 76.4204 29.3963 72.2041 29.7405Z" fill="#F9D8B7"/>
<path d="M36.1528 41.7056V29.7405C35.9597 29.7405 35.7657 29.6915 35.5717 29.6915C31.5495 29.6915 28.2551 33.04 28.2551 37.1261C28.2551 41.2132 31.5495 44.5618 35.5717 44.5618C35.8622 44.5618 36.1045 44.5618 36.3951 44.5118C36.202 43.577 36.1528 42.6413 36.1528 41.7056Z" fill="#F9D8B7"/>
<path d="M71.1867 28.2144C58.1519 31.1196 48.4608 24.8168 44.9241 22.0107C44.2937 21.5183 43.4212 21.8135 43.1789 22.5521C42.1615 25.7525 38.6731 27.1806 37.1219 27.673C36.6866 27.821 36.202 28.2144 36.1528 28.7067V41.7056C36.1528 51.7993 44.2455 61.991 54.1789 61.991C64.1124 61.991 72.2041 51.7993 72.2041 41.7056V29.101C72.2041 28.5596 71.7196 28.1163 71.1867 28.2144Z" fill="#F9D8B7"/>
<path d="M76.4203 16.5455C74.7244 11.0303 70.6539 6.64897 65.4686 4.33424C42.8883 -5.71038 36.9288 11.6218 36.9288 11.6218C30.2898 14.4279 28.8844 24.3744 30.7744 31.4148H30.9201C32.1798 30.381 33.7792 29.7405 35.5234 29.7405C35.7174 29.7405 35.9105 29.7405 36.1045 29.7905C36.1045 29.4453 36.1045 29.1501 36.1045 28.7558C36.1528 28.2634 36.6373 27.8701 37.0736 27.722C38.6248 27.2296 42.1615 25.8015 43.1306 22.6011C43.3729 21.8626 44.2455 21.5673 44.8748 22.0597C48.4125 24.8668 58.1037 31.1686 71.1385 28.2634C71.6713 28.1653 72.1558 28.6087 72.1558 29.1501V29.7905C74.2398 29.5934 76.1288 30.332 77.5825 31.6119C78.3586 25.3592 77.5825 20.3854 76.4203 16.5455Z" fill="#515050"/>
<path d="M71.7678 69.1305C71.235 68.9833 70.7504 68.8352 70.2176 68.6381L65.372 66.1762L55.9231 77.5999C59.8961 80.2089 65.178 79.077 67.7948 75.0889L71.7678 69.1305Z" fill="#E8E6E6"/>
<path d="M37.0254 69.0814L40.9984 75.138C43.6152 79.126 48.897 80.2589 52.87 77.6489L43.3729 66.1762L43.0341 66.3243L38.673 68.4909C38.1402 68.6881 37.6065 68.8843 37.0254 69.0814Z" fill="#E8E6E6"/>
<path d="M64.984 65.98C63.5795 65.2905 62.707 63.8134 62.707 62.2372V59.333C60.1876 61.0063 57.2803 61.991 54.1789 61.991C51.2233 61.991 48.4608 61.1053 45.9897 59.5792V62.2872C45.9897 63.8624 45.1171 65.3396 43.7127 66.0291L43.4212 66.1762L52.9193 77.6489H55.9714L65.4203 66.2262L64.984 65.98Z" fill="#F9D8B7"/>
<path d="M29.757 125.311C29.0784 125.311 28.5456 124.769 28.5456 124.08V96.8515C28.5456 96.162 29.0784 95.6206 29.757 95.6206C30.4356 95.6206 30.9684 96.162 30.9684 96.8515V124.08C30.9684 124.769 30.4356 125.311 29.757 125.311Z" fill="#231F20"/>
<path d="M54.5177 121.421C53.8392 121.421 53.3063 120.88 53.3063 120.19V82.0803C53.3063 81.3908 53.8392 80.8493 54.5177 80.8493C55.1963 80.8493 55.7291 81.3908 55.7291 82.0803V120.19C55.7291 120.88 55.148 121.421 54.5177 121.421Z" fill="#231F20"/>
<path d="M72.7862 45.7927C72.4947 45.7927 72.2041 45.7927 71.817 45.7427C71.4773 45.6936 71.1867 45.5465 70.9927 45.2503C70.7987 44.9551 70.7022 44.6599 70.7504 44.3156C70.8962 43.4289 70.9445 42.5423 70.9445 41.7056V29.7405C70.9445 29.101 71.429 28.5596 72.0593 28.5096C74.4329 28.3134 76.7592 29.1501 78.5516 30.7753C80.2968 32.3996 81.3142 34.7143 81.3142 37.1261C81.3142 41.9028 77.486 45.7927 72.7862 45.7927ZM73.4155 31.0215V41.7547C73.4155 42.2961 73.4155 42.8385 73.3672 43.3799C76.4686 43.0846 78.8914 40.4256 78.8914 37.2252C78.8914 35.4528 78.2128 33.8767 76.9049 32.6948C75.9358 31.71 74.7244 31.1196 73.4155 31.0215Z" fill="#231F20"/>
<path d="M35.5234 45.7927C30.8226 45.7927 26.9954 41.9028 26.9954 37.1262C26.9954 32.3505 30.8718 28.5096 35.5234 28.5096C35.7657 28.5096 36.008 28.5096 36.202 28.5596C36.8313 28.6087 37.3159 29.1501 37.3159 29.7906V41.7547C37.3159 42.5923 37.3642 43.478 37.5099 44.3646C37.5582 44.7089 37.4616 45.0041 37.2676 45.3003C37.0736 45.5465 36.7831 45.7427 36.4443 45.7927C36.1045 45.7927 35.814 45.7927 35.5234 45.7927ZM34.9414 30.9715C31.8892 31.2677 29.4664 33.9257 29.4664 37.1262C29.4664 40.3766 31.8892 43.0346 34.9906 43.2808C34.9414 42.7394 34.9414 42.198 34.9414 41.6566V30.9715Z" fill="#231F20"/>
<path d="M54.5177 52.735C52.3855 52.735 50.3507 51.6512 49.1876 49.8298C48.8005 49.2884 48.9453 48.5008 49.5273 48.1065C50.0602 47.7122 50.8353 47.8603 51.2233 48.4508C51.9984 49.5836 53.2098 50.2731 54.566 50.2731C55.9231 50.2731 57.1345 49.5836 57.9096 48.4508C58.2976 47.9093 59.0245 47.7622 59.6056 48.1065C60.1384 48.5008 60.2841 49.2393 59.9453 49.8298C58.6847 51.6512 56.6982 52.735 54.5177 52.735Z" fill="#231F20"/>
<path d="M63.5304 35.699C63.3373 35.699 63.1433 35.649 62.9493 35.5509C62.6587 35.4029 61.9319 35.2067 61.0593 35.2067C60.1876 35.2067 59.5091 35.3538 59.1693 35.5509C58.5882 35.8462 57.8614 35.649 57.5226 35.0586C57.2311 34.4681 57.4251 33.7295 58.0071 33.3843C58.734 32.991 59.8479 32.7448 61.011 32.7448C62.1742 32.7448 63.2881 32.991 64.0149 33.3843C64.5969 33.6795 64.8392 34.4681 64.4995 35.0586C64.4029 35.4529 63.9666 35.699 63.5304 35.699Z" fill="#231F20"/>
<path d="M50.399 35.699C50.205 35.699 50.0119 35.649 49.8179 35.5509C49.5273 35.4029 48.8005 35.2067 47.9279 35.2067C47.0553 35.2067 46.3777 35.3538 46.038 35.5509C45.4569 35.8462 44.73 35.649 44.3903 35.0586C44.0997 34.4681 44.2937 33.7295 44.8748 33.3843C45.6017 32.991 46.7165 32.7448 47.8797 32.7448C49.0428 32.7448 50.1567 32.991 50.8835 33.3843C51.4656 33.6795 51.7079 34.4681 51.3681 35.0586C51.2233 35.4529 50.787 35.699 50.399 35.699Z" fill="#231F20"/>
<path d="M48.122 40.5237C47.2976 40.5237 46.6683 39.8842 46.6683 39.0466V38.7514C46.6683 37.9147 47.2976 37.2742 48.122 37.2742C48.9453 37.2742 49.5756 37.9147 49.5756 38.7514V39.0466C49.5756 39.8342 48.9453 40.5237 48.122 40.5237Z" fill="#231F20"/>
<path d="M60.9627 40.7209C60.1384 40.7209 59.5091 40.0804 59.5091 39.2438V38.9485C59.5091 38.1109 60.1384 37.4714 60.9627 37.4714C61.7861 37.4714 62.4164 38.1109 62.4164 38.9485V39.2438C62.4164 40.0314 61.7378 40.7209 60.9627 40.7209Z" fill="#231F20"/>
<path d="M54.1789 63.222C43.1789 63.222 34.9414 51.8483 34.9414 41.7056V28.7068C34.9414 28.6577 34.9414 28.6577 34.9414 28.6087C35.0389 27.5249 35.9597 26.7863 36.7831 26.4911C38.091 26.0977 41.2407 24.8168 42.065 22.1588C42.3072 21.4202 42.8883 20.8288 43.6152 20.6316C44.342 20.3854 45.1171 20.5335 45.6992 21.0259C49.1393 23.734 58.4425 29.7906 70.9445 26.9834C71.5256 26.8363 72.1559 27.0325 72.6404 27.4268C73.125 27.8211 73.4155 28.4606 73.4155 29.101V41.7056C73.4155 51.8974 65.178 63.222 54.1789 63.222ZM37.3642 28.9529V41.7056C37.3642 52.6359 46.232 60.7601 54.1789 60.7601C62.1259 60.7601 70.9927 52.6359 70.9927 41.7056V29.5444C57.8614 32.3015 48.0737 26.0977 44.2937 23.1435C43.0824 26.7863 39.1094 28.4115 37.4617 28.9039C37.4134 28.9039 37.4134 28.9039 37.3642 28.9529Z" fill="#231F20"/>
<path d="M77.6317 32.8429C77.3402 32.8429 77.0497 32.7448 76.8074 32.5477C75.5477 31.4149 73.9483 30.8734 72.3016 31.0215C71.9618 31.0706 71.623 30.9225 71.3807 30.6763C71.1385 30.4301 70.9927 30.1349 70.9927 29.7906V29.5444C57.8614 32.3015 48.0737 26.0978 44.2937 23.1436C43.0823 26.7863 39.1093 28.4116 37.4616 28.9039C37.4134 28.9039 37.3642 28.953 37.3159 28.953V29.7406C37.3159 30.0858 37.1711 30.4301 36.9288 30.6272C36.6865 30.8244 36.3468 30.9715 36.008 30.9715C35.8622 30.9715 35.6682 30.9715 35.5234 30.9715C34.118 30.9715 32.7609 31.4639 31.6952 32.3506C31.4529 32.5477 31.2107 32.6458 30.9201 32.6458H30.7744C30.2415 32.6458 29.757 32.2525 29.6112 31.7601C28.5456 27.8701 28.5456 23.4388 29.5147 19.6469C30.6296 15.3146 32.8583 12.2613 36.008 10.7352C36.6865 9.1109 39.2059 4.13715 45.0206 1.52815C50.6895 -0.982769 57.7648 -0.392305 65.9049 3.25145C71.5255 5.76237 75.7418 10.489 77.5343 16.2503C78.9879 20.9769 79.4242 26.2449 78.7939 31.8091C78.7456 32.2525 78.4551 32.6458 78.0188 32.7939C77.9223 32.7939 77.7765 32.8429 77.6317 32.8429ZM52.6278 2.41384C50.205 2.41384 47.9762 2.85717 45.9897 3.74383C40.0785 6.35283 38.091 11.9661 38.091 12.0151C37.9945 12.3604 37.7522 12.6066 37.4134 12.7537C33.1972 14.527 29.9993 21.3212 31.5987 29.4944C32.6161 28.953 33.7792 28.6087 34.9414 28.5097C35.0871 27.4759 35.9597 26.7863 36.7348 26.5402C38.0427 26.1468 41.1924 24.8669 42.0167 22.2078C42.259 21.4693 42.8401 20.8779 43.5669 20.6817C44.2937 20.4355 45.0688 20.5826 45.6509 21.075C49.091 23.7831 58.3942 29.8396 70.8962 27.0325H70.9444C71.5255 26.9344 72.1076 27.0825 72.5921 27.4759C72.9309 27.7711 73.1732 28.1163 73.319 28.5597C74.4821 28.6087 75.596 28.953 76.6134 29.4454C76.9049 24.965 76.4686 20.7798 75.2572 16.9389C73.6578 11.868 69.9271 7.68282 64.9357 5.46714C60.4299 3.4486 56.3112 2.41384 52.6278 2.41384Z" fill="#231F20"/>
<path d="M60.5747 80.2589C58.7339 80.2589 56.8922 79.7665 55.2928 78.6827C55.0023 78.4856 54.8083 78.1903 54.76 77.846C54.7117 77.5008 54.8083 77.1565 55.0505 76.8613L64.4994 65.4377C64.8392 64.9953 65.4685 64.8962 65.9531 65.1424L70.7504 67.5552C71.0902 67.6533 71.429 67.8014 71.7678 67.8995L72.1558 67.9986C72.5439 68.0967 72.7861 68.3919 72.9309 68.7862C73.0767 69.1305 73.0284 69.5738 72.7861 69.869L68.8605 75.8765C66.9222 78.6827 63.7726 80.2589 60.5747 80.2589ZM57.8614 77.2546C61.0593 78.5356 64.8392 77.4518 66.8257 74.4485L69.8788 69.82C69.8296 69.82 69.7813 69.7709 69.733 69.7709L65.76 67.7524L57.8614 77.2546Z" fill="#231F20"/>
<path d="M48.2185 80.2589C45.0206 80.2589 41.871 78.6827 39.981 75.8275L36.008 69.7709C35.814 69.4266 35.7657 69.0324 35.8622 68.6881C35.9597 68.3428 36.2503 68.0476 36.6373 67.8995C37.1711 67.7033 37.7039 67.5552 38.1885 67.3581L42.8401 65.0443C43.3246 64.7981 43.9549 64.9453 44.2937 65.3396L53.7909 76.8122C54.0332 77.1075 54.1307 77.4518 54.0814 77.797C54.0332 78.1413 53.8392 78.4365 53.5486 78.6336C51.9009 79.7665 50.0602 80.2589 48.2185 80.2589ZM38.9153 69.7219L42.0167 74.4485C44.0032 77.4518 47.7822 78.5846 50.981 77.2546L43.0824 67.7033L39.2542 69.6228C39.2059 69.6228 39.1576 69.6728 39.1094 69.6728C39.0601 69.6728 38.9636 69.7219 38.9153 69.7219Z" fill="#231F20"/>
<path d="M43.863 78.6287C43.6207 78.6287 43.4276 78.5796 43.2336 78.4315C42.0222 77.6439 41.0048 76.6592 40.2288 75.4773L39.2114 73.9021C39.0174 73.6069 38.9691 73.2616 39.0174 72.9664C39.0666 72.6711 39.2597 72.3759 39.5512 72.1788L45.8012 68.1907C46.335 67.8455 46.9643 67.9936 47.3524 68.4369L50.502 72.2278C50.696 72.474 50.7925 72.8192 50.7925 73.1635C50.7443 73.5078 50.5985 73.804 50.308 74.0002L44.5898 78.3335C44.3475 78.5796 44.1053 78.6287 43.863 78.6287ZM41.8765 73.6069L42.2162 74.1483C42.6516 74.8378 43.1854 75.4283 43.8147 75.9206L47.7887 72.8683L46.141 70.8988L41.8765 73.6069Z" fill="#231F20"/>
<path d="M65.2755 78.8798C65.0332 78.8798 64.7417 78.7818 64.5487 78.6337L58.8305 74.2513C58.5882 74.0542 58.3942 73.759 58.3459 73.4147C58.2977 73.0694 58.3942 72.7252 58.6365 72.479L61.7861 68.6881C62.1741 68.1957 62.8527 68.0967 63.3373 68.4419L69.5873 72.4299C69.8788 72.6271 70.0719 72.8733 70.1211 73.2175C70.1694 73.5618 70.1211 73.9071 69.9271 74.1532L68.8122 75.8275C68.0371 77.0084 67.068 77.9441 65.9049 78.7317C65.7108 78.8308 65.5178 78.8798 65.2755 78.8798ZM61.3015 73.0694L65.3238 76.1227C65.9049 75.6304 66.4377 75.0889 66.8257 74.4485L67.2137 73.858L62.901 71.15L61.3015 73.0694Z" fill="#231F20"/>
<path d="M55.9231 78.8799H52.87C52.5312 78.8799 52.1924 78.7318 51.9501 78.4365L42.452 66.9648C42.2098 66.6686 42.1132 66.2753 42.2098 65.93C42.3072 65.5367 42.5495 65.2415 42.8401 65.0934L43.1306 64.9453C44.0997 64.4529 44.73 63.4191 44.73 62.3363V59.6282C44.73 59.1849 44.9723 58.7906 45.3594 58.5444C45.7474 58.3482 46.232 58.3482 46.5708 58.5444C48.9936 60.0215 51.5138 60.8101 54.1306 60.8101C56.844 60.8101 59.5573 59.9725 61.9801 58.3482C62.3681 58.1021 62.8035 58.1021 63.1915 58.2982C63.5795 58.4954 63.8218 58.9387 63.8218 59.382V62.2872C63.8218 63.4191 64.4512 64.4039 65.4203 64.8962L65.8083 65.0934C66.1471 65.2415 66.3894 65.5858 66.4377 65.93C66.4869 66.2753 66.4377 66.6686 66.1954 66.9648L56.7465 78.3875C56.65 78.7318 56.3112 78.8799 55.9231 78.8799ZM53.4521 76.418H55.3903L63.5303 66.5215C62.2224 65.5367 61.4956 63.9605 61.4956 62.2372V61.4496C59.1693 62.6315 56.65 63.222 54.1789 63.222C51.8044 63.222 49.4299 62.6806 47.2011 61.5977V62.2372C47.2011 63.9115 46.4742 65.4377 45.2146 66.4224L53.4521 76.418Z" fill="#231F20"/>
<path d="M87.2254 123.538C87.2254 123.538 85.7235 123.538 85.5777 123.538C74.4821 123.538 64.7909 111.278 64.7909 97.2948C64.7909 85.4288 70.7504 75.3842 78.8914 72.1347C79.0362 72.0847 79.3277 71.9866 79.3277 71.9866C79.8122 71.6914 80.1028 71.1 79.957 70.4604C79.8605 69.919 79.4242 69.5247 78.9397 69.3766L78.6974 69.3276L75.9358 68.9833C74.0941 68.4909 72.2524 67.9495 70.4599 67.3091L65.5178 64.8472C64.5487 64.3548 63.9184 63.321 63.9184 62.2372V60.1206C63.9184 60.0715 64.2089 59.2339 63.6761 58.6925C63.6278 58.6435 63.3373 58.2982 62.8527 58.2492C62.8527 58.2492 62.6104 58.2492 61.6896 58.5444C60.9145 59.0368 59.8479 59.5792 58.5882 60.0215C57.0863 60.5139 55.7774 60.7111 54.76 60.7601H53.6461C52.5312 60.662 51.1258 60.4649 49.5273 59.8744C48.5582 59.5292 47.7822 59.1358 47.1046 58.7416C47.0071 58.6435 46.8623 58.5944 46.7648 58.4954C46.232 58.1511 45.5534 58.2001 45.1171 58.6435C44.7783 58.9877 44.6325 59.5292 44.8266 60.0215V62.2372C44.8266 63.3701 44.1972 64.3548 43.2281 64.8472L37.9945 67.4071C36.3951 67.9495 34.6991 68.4419 33.0524 68.8843L23.1189 71.4452C19.533 72.3309 17.0127 75.4823 16.8197 79.2241L14.4934 121.322C14.4451 122.553 14.8814 123.735 15.7048 124.622C16.5282 125.507 17.6913 126 18.8544 126H87.1772C87.1772 125.163 87.2254 124.375 87.2254 123.538ZM74.8692 123.538H18.9027C18.3699 123.538 17.837 123.342 17.4973 122.898C17.1102 122.504 16.9162 121.963 16.9645 121.421L19.2907 79.3232C19.4355 76.6642 21.2289 74.4485 23.7965 73.808L33.73 71.2971C35.4752 70.8538 37.2194 70.3123 38.9153 69.7219C38.9636 69.7219 39.0119 69.6728 39.0601 69.6728L44.342 67.0138C46.038 66.1272 47.0553 63.5672 47.2011 61.6468C49.1393 62.9267 51.1741 63.272 53.5486 63.272H54.6635C57.038 63.272 59.5573 62.7796 61.4956 61.4987C61.6413 63.4191 62.901 66.1762 64.5969 67.0138L69.6365 69.5247C69.6848 69.5247 69.7331 69.5738 69.7813 69.5738C71.429 70.1652 73.0767 70.7066 74.7727 71.15C73.0767 72.3809 70.8962 74.2023 68.8122 76.7623C66.2929 79.9136 64.8392 82.9669 64.0149 85.1326C62.2707 90.1554 61.9801 94.4387 61.9801 97.1958C62.0284 100.298 62.2224 109.85 69.1027 117.777C71.623 120.683 74.2398 122.504 76.0323 123.538C75.6935 123.538 75.2572 123.538 74.8692 123.538Z" fill="#231F20"/>
<path d="M107.092 86.0683C104.767 78.4855 99.1946 72.2818 91.9262 69.4266C89.9388 68.6381 87.7583 68.0966 85.5777 68.0966C83.3972 68.0966 81.2167 68.6381 79.2302 69.4266C71.9136 72.2818 66.3411 78.4855 64.0641 86.0683C59.4116 101.332 67.2137 116.842 67.2137 116.842C69.0545 119.403 71.817 121.175 74.6269 122.406C81.653 125.507 89.6482 125.507 96.6743 122.406C99.4851 121.175 102.247 119.353 104.088 116.842C103.943 116.891 111.744 101.381 107.092 86.0683Z" fill="#FF3434"/>
<path d="M105.396 112.706C103.41 115.464 100.454 117.383 97.4012 118.713C89.8422 122.061 81.1685 122.061 73.6095 118.713C70.5564 117.383 67.6008 115.464 65.6143 112.706C65.6143 112.706 65.2263 111.918 64.6452 110.54C65.8083 114.429 67.068 116.842 67.068 116.842C68.9097 119.403 71.6713 121.175 74.4821 122.406C81.5082 125.507 89.5034 125.507 96.5295 122.406C99.3394 121.175 102.102 119.353 103.943 116.842C103.943 116.842 105.154 114.38 106.365 110.54C105.784 111.918 105.396 112.706 105.396 112.706Z" fill="#515050"/>
<path d="M91.1019 69.9681V69.1805C89.3094 68.54 87.4194 68.1457 85.5295 68.1457C83.6395 68.1457 81.7505 68.54 79.957 69.1805V69.9681C79.957 71.248 81.0236 72.3309 82.2833 72.3309H88.7766C90.0845 72.3309 91.1019 71.248 91.1019 69.9681Z" fill="#E8E6E6"/>
<path d="M107.48 87.5454C101.617 85.724 93.961 84.6402 85.5295 84.6402C77.098 84.6402 69.4425 85.724 63.5795 87.5454C62.0284 93.7001 62.3682 99.7567 63.2881 104.828C64.5969 105.222 66.0023 105.616 67.456 105.96C71.4773 106.847 75.6935 106.551 79.5208 105.025C81.3142 104.286 83.349 103.893 85.5295 103.893C87.71 103.893 89.7457 104.286 91.5382 105.025C95.4629 106.65 99.8239 106.847 103.991 105.862C105.348 105.566 106.608 105.222 107.819 104.828C108.692 99.7567 109.079 93.6511 107.48 87.5454Z" fill="#30A9E5"/>
<path d="M91.8287 120.534L95.8027 106.158C94.349 105.911 92.8953 105.517 91.5382 104.976C89.7457 104.237 87.71 103.843 85.5295 103.843C83.349 103.843 81.3142 104.237 79.5208 104.976C78.1646 105.517 76.7109 105.911 75.2572 106.158L79.2302 120.534C83.3972 121.47 87.71 121.47 91.8287 120.534Z" fill="#E8E6E6"/>
<path d="M85.5295 126C81.6047 126 77.68 125.212 74.0458 123.588C70.5564 122.061 67.8914 120.042 66.1471 117.629C66.0989 117.58 66.0989 117.531 66.0506 117.482C65.7108 116.842 58.1037 101.332 62.8527 85.7731C65.2755 77.797 71.235 71.2971 78.7457 68.3428C81.1202 67.4071 83.4464 66.9148 85.5295 66.9148C87.6135 66.9148 89.9388 67.4071 92.3133 68.3428C99.824 71.2971 105.784 77.797 108.207 85.7731C112.955 101.332 105.3 116.842 105.009 117.482C104.96 117.531 104.96 117.58 104.912 117.629C103.168 120.042 100.503 122.061 97.0141 123.588C93.3799 125.212 89.4542 126 85.5295 126ZM68.1829 116.251C69.6848 118.27 71.9618 119.993 75.0149 121.322C81.7013 124.276 89.406 124.276 96.0932 121.322C99.1454 119.993 101.472 118.27 102.925 116.251C103.506 115.02 110.194 100.495 105.929 86.4626C103.7 79.2241 98.322 73.3156 91.4899 70.6076C89.3577 69.7709 87.3712 69.3766 85.5777 69.3766C83.7853 69.3766 81.7505 69.82 79.6665 70.6076C72.8344 73.2666 67.4068 79.2241 65.2263 86.4626C60.8653 100.495 67.5525 114.971 68.1829 116.251Z" fill="#231F20"/>
<path d="M85.5295 126C81.6047 126 77.68 125.212 74.0458 123.588C70.5564 122.061 67.8914 120.042 66.1471 117.629C66.0989 117.58 66.0506 117.531 66.0506 117.482C66.0023 117.383 64.7909 114.921 63.5795 110.982C63.3855 110.343 63.7243 109.702 64.3064 109.456C64.9357 109.21 65.566 109.555 65.8566 110.146C66.2929 111.179 66.6317 111.918 66.7292 112.115C68.3277 114.331 70.8479 116.152 74.1424 117.629C81.4107 120.83 89.6965 120.83 96.9649 117.629C100.26 116.152 102.78 114.282 104.379 112.115C104.476 111.869 104.815 111.179 105.252 110.146C105.494 109.555 106.171 109.21 106.802 109.456C107.432 109.702 107.723 110.343 107.529 110.982C106.317 114.921 105.106 117.383 105.058 117.482C105.009 117.531 105.009 117.58 104.96 117.629C103.216 120.042 100.551 122.061 97.0623 123.588C93.3799 125.212 89.4542 126 85.5295 126ZM69.9271 118.172C71.2833 119.403 72.9792 120.436 75.0149 121.322C81.7013 124.276 89.4059 124.276 96.0932 121.322C98.128 120.436 99.8239 119.353 101.181 118.172C100.164 118.762 99.0971 119.353 97.934 119.895C90.0845 123.391 81.0719 123.391 73.1732 119.895C72.0101 119.353 70.8962 118.762 69.9271 118.172Z" fill="#231F20"/>
<path d="M88.7766 73.5618H82.2833C80.3451 73.5618 78.7457 71.9376 78.7457 69.9681V69.1805C78.7457 68.6381 79.0854 68.1957 79.57 67.9986C81.653 67.26 83.6887 66.9148 85.5295 66.9148C87.3712 66.9148 89.406 67.309 91.4899 67.9986C91.9745 68.1457 92.3133 68.6381 92.3133 69.1805V69.9681C92.3133 71.9376 90.7631 73.5618 88.7766 73.5618ZM81.1685 70.0662C81.2167 70.6576 81.7013 71.1 82.2833 71.1H88.7766C89.3577 71.1 89.8423 70.6576 89.8905 70.0662C88.3403 69.6228 86.8866 69.3766 85.5295 69.3766C84.1733 69.3766 82.7196 69.6228 81.1685 70.0662Z" fill="#231F20"/>
<path d="M72.0593 107.635C70.4599 107.635 68.8122 107.438 67.2137 107.093C65.7108 106.748 64.2572 106.355 62.9492 105.96C62.5129 105.812 62.2224 105.468 62.1259 105.025C60.9627 98.6729 61.0593 92.6663 62.4164 87.2011C62.5129 86.8069 62.8527 86.4626 63.2398 86.3145C69.3942 84.394 77.3402 83.3602 85.5295 83.3602C93.7187 83.3602 101.666 84.394 107.819 86.3145C108.207 86.4626 108.546 86.7578 108.643 87.2011C110.048 92.6173 110.145 98.6238 108.934 105.025C108.837 105.468 108.546 105.812 108.11 105.96C106.898 106.355 105.59 106.699 104.233 107.043C99.6792 108.078 95.1241 107.782 91.0536 106.108C87.6617 104.729 83.349 104.729 79.9571 106.108C77.486 107.142 74.8209 107.635 72.0593 107.635ZM64.3546 103.843C65.4203 104.188 66.5834 104.483 67.7466 104.729C71.623 105.616 75.5478 105.32 79.0854 103.843C83.0102 102.219 88.0005 102.219 91.9745 103.843C95.6087 105.32 99.6299 105.566 103.7 104.631C104.767 104.385 105.736 104.139 106.705 103.843C107.625 98.3776 107.577 93.2077 106.463 88.5302C100.599 86.8069 93.1859 85.8712 85.5295 85.8712C77.8248 85.8712 70.4599 86.8069 64.5969 88.5302C63.5303 93.2077 63.4338 98.3286 64.3546 103.843Z" fill="#231F20"/>
<path d="M85.5295 122.455C83.3007 122.455 81.1202 122.209 78.9879 121.765C78.5516 121.667 78.2128 121.322 78.0671 120.88L74.0941 106.502C73.9976 106.158 74.0458 105.812 74.2398 105.517C74.4329 105.222 74.7244 105.025 75.0632 104.976C76.4686 104.729 77.7765 104.385 79.0854 103.843C83.0102 102.219 88.0005 102.219 91.9745 103.843C93.2342 104.335 94.5913 104.729 95.9958 104.927C96.3355 104.976 96.6261 105.173 96.8201 105.468C97.0141 105.763 97.0624 106.108 96.9649 106.453L92.9919 120.83C92.8461 121.273 92.5073 121.618 92.071 121.716C89.9388 122.209 87.7583 122.455 85.5295 122.455ZM80.1993 119.501C83.6887 120.19 87.3712 120.19 90.8596 119.501L94.2515 107.142C93.1376 106.896 92.071 106.551 91.0536 106.158C87.6617 104.779 83.349 104.779 79.9571 106.158C78.9397 106.551 77.874 106.896 76.7592 107.142L80.1993 119.501Z" fill="#231F20"/>
</svg>
