<svg width="280" height="149" viewBox="0 0 280 149" fill="none" xmlns="http://www.w3.org/2000/svg">
<g clip-path="url(#clip0)">
<path d="M279.871 149H0V148.378H280L279.871 149Z" fill="#3F3D56"/>
<path d="M244.383 50.0327L237.301 62.309L216.125 70.7381C213.863 74.0844 206.677 74.3405 206.155 72.1766C205.568 69.749 214.881 65.8416 214.881 65.8416L232.593 55.3521L234.143 46.3219L244.383 50.0327Z" fill="#A0616A"/>
<path d="M243.547 132.416L244.853 141.565L237.278 142.023L236.494 132.416H243.547Z" fill="#A0616A"/>
<path d="M242.502 140.193C243.18 139.566 243.804 138.897 244.372 138.191C245.457 136.876 246.421 143.624 246.421 143.624C246.421 143.624 247.465 146.368 247.204 147.74C246.943 149.113 240.935 149.113 239.89 148.884C238.845 148.655 233.621 148.884 233.621 148.884H225.784C218.993 146.139 225.784 144.31 225.784 144.31C227.874 144.081 234.927 138.363 234.927 138.363L236.494 135.847C237.539 135.618 238.584 139.049 238.584 139.049L242.502 140.193Z" fill="#2F2E41"/>
<path d="M263.138 132.531L264.445 141.679L256.869 142.137L256.086 132.531H263.138Z" fill="#A0616A"/>
<path d="M262.094 140.307C262.771 139.68 263.396 139.011 263.963 138.306C265.049 136.99 266.012 143.738 266.012 143.738C266.012 143.738 267.057 146.254 266.796 147.626C266.534 148.998 260.526 148.998 259.481 148.77C258.437 148.541 253.212 148.998 253.212 148.998H245.376C238.584 146.254 245.376 144.424 245.376 144.424C247.465 144.195 254.518 138.477 254.518 138.477L256.086 135.962C257.131 135.733 258.175 139.164 258.175 139.164L262.094 140.307Z" fill="#2F2E41"/>
<path d="M254.518 73.5216C255.563 74.6651 255.041 78.5533 255.041 78.5533C255.041 78.5533 256.869 91.1328 256.086 92.2764C255.302 93.42 256.608 94.3349 257.392 95.9359C258.175 97.5369 258.959 101.425 258.959 101.425C263.4 104.627 263.139 119.265 263.139 119.265L264.706 132.302C264.184 133.674 256.869 133.903 255.825 133.674C254.78 133.446 251.645 112.861 251.645 112.861L244.592 101.196C244.592 101.196 245.115 132.302 245.115 133.674C245.115 135.047 238.062 134.36 236.494 134.36C234.927 134.36 234.927 111.489 234.927 111.489L233.36 105.542L225.001 78.3246V75.1226L226.307 73.5216C226.307 73.5216 253.474 72.378 254.518 73.5216Z" fill="#2F2E41"/>
<path d="M243.025 21.6027C247.497 21.6027 251.123 18.4283 251.123 14.5125C251.123 10.5967 247.497 7.42224 243.025 7.42224C238.553 7.42224 234.927 10.5967 234.927 14.5125C234.927 18.4283 238.553 21.6027 243.025 21.6027Z" fill="#A0616A"/>
<path d="M238.976 17.8289C240.617 21.0292 239.645 25.4992 236.364 30.4083L249.686 24.9191L247.596 23.3181L248.119 18.7437L238.976 17.8289Z" fill="#A0616A"/>
<path d="M238.976 25.1479C237.231 26.056 236.188 27.7245 235.589 29.4224C234.48 32.5658 233.812 35.8157 233.601 39.1005L232.968 48.9345L225.131 75.0083C231.923 80.0401 235.841 78.8965 244.984 74.7796C254.127 70.6627 255.171 76.1519 255.171 76.1519C255.171 76.1519 255.955 75.9232 255.171 75.237C254.388 74.5509 255.171 75.237 255.955 74.5509C256.739 73.8647 255.955 74.5509 255.694 73.8647C255.433 73.1785 255.694 73.636 255.955 73.4073C256.216 73.1786 254.91 71.1201 254.91 71.1201L257 53.9663L259.612 29.7222C256.477 26.2915 247.596 23.3181 247.596 23.3181L239.498 28.3499C236.886 29.2648 238.976 25.6053 238.976 25.6053V25.1479Z" fill="#FF7272"/>
<path d="M263.922 44.2457L264.967 57.9688L251.645 74.6652C251.645 78.5534 249.294 79.4683 249.294 79.4683C248.403 78.2239 247.618 76.9244 246.943 75.58C245.637 73.0642 247.727 71.0057 247.727 71.0057L256.869 54.0806L252.951 45.6181L263.922 44.2457Z" fill="#A0616A"/>
<path d="M259.481 29.8365C263.922 31.2088 264.706 46.0754 264.706 46.0754C259.481 43.5595 253.212 47.6765 253.212 47.6765C253.212 47.6765 251.906 43.7883 250.339 38.7565C249.866 37.3411 249.809 35.8439 250.174 34.4043C250.54 32.9646 251.315 31.6293 252.429 30.5226C252.429 30.5226 255.041 28.4642 259.481 29.8365Z" fill="#FF7272"/>
<path d="M250.47 16.6852C249.439 15.9631 248.032 17.2757 248.032 17.2757L247.208 10.7768C247.208 10.7768 242.053 11.3184 238.754 10.5963C235.456 9.87418 234.94 13.2139 234.94 13.2139C234.77 11.8652 234.736 10.5061 234.837 9.15209C235.043 7.52737 237.723 5.90265 242.466 4.8195C247.208 3.73636 249.682 8.42999 249.682 8.42999C252.981 9.87419 251.5 17.4073 250.47 16.6852Z" fill="#2F2E41"/>
<path d="M13.1625 112.12C14.0528 115.215 21.6443 122.174 29.4777 128.708C17.398 102.584 24.2815 73.9922 24.2815 73.9922C22.0385 85.2213 52.7786 141.73 52.7786 141.73L45.7771 145.345L43.4119 148.259C19.7019 138.724 13.1625 112.12 13.1625 112.12Z" fill="#E6E6E6"/>
<path d="M217.445 54.1891H118.417V71.3081H217.445V54.1891Z" fill="#E6E6E6"/>
<path d="M217.445 27.139H118.417V44.2581H217.445V27.139Z" fill="#E6E6E6"/>
<path d="M217.445 0H118.417V17.1191H217.445V0Z" fill="#E6E6E6"/>
<path d="M120.528 15.2706H215.333V1.84851H120.528V15.2706Z" fill="white"/>
<path d="M120.528 42.4693H215.333V29.0472H120.528V42.4693Z" fill="white"/>
<path d="M120.528 69.4597H215.333V56.0376H120.528V69.4597Z" fill="white"/>
<path d="M128.828 13.5618C132.053 13.5618 134.668 11.2724 134.668 8.44832C134.668 5.62422 132.053 3.33484 128.828 3.33484C125.602 3.33484 122.987 5.62422 122.987 8.44832C122.987 11.2724 125.602 13.5618 128.828 13.5618Z" fill="#FF7272"/>
<path d="M200.432 6.44739H142.793V7.55901H200.432V6.44739Z" fill="#FF7272"/>
<path d="M200.432 9.33765H142.793V10.4493H200.432V9.33765Z" fill="#FF7272"/>
<path d="M128.828 40.9233C132.053 40.9233 134.668 38.6339 134.668 35.8098C134.668 32.9857 132.053 30.6963 128.828 30.6963C125.602 30.6963 122.987 32.9857 122.987 35.8098C122.987 38.6339 125.602 40.9233 128.828 40.9233Z" fill="#CCCCCC"/>
<path d="M200.432 33.8088H142.793V34.9205H200.432V33.8088Z" fill="#CCCCCC"/>
<path d="M200.432 36.6991H142.793V37.8107H200.432V36.6991Z" fill="#CCCCCC"/>
<path d="M128.828 67.9733C132.053 67.9733 134.668 65.6839 134.668 62.8598C134.668 60.0357 132.053 57.7463 128.828 57.7463C125.602 57.7463 122.987 60.0357 122.987 62.8598C122.987 65.6839 125.602 67.9733 128.828 67.9733Z" fill="#CCCCCC"/>
<path d="M200.432 60.8589H142.793V61.9705H200.432V60.8589Z" fill="#CCCCCC"/>
<path d="M200.432 63.7491H142.793V64.8608H200.432V63.7491Z" fill="#CCCCCC"/>
<path d="M45.4068 49.3814C45.4068 49.3814 44.0414 56.8961 49.698 56.213C49.698 56.213 72.1297 51.7725 73.3 52.7972C74.4704 53.8219 81.7463 54.1708 81.3668 49.8506C80.9859 45.5158 73.6902 48.0151 73.6902 48.0151C73.6902 48.0151 62.3768 49.3814 60.0361 48.3567C57.6954 47.3319 51.0635 47.6735 51.0635 47.6735L45.4068 49.3814Z" fill="#A0616A"/>
<path d="M62.5249 73.8876L59.4145 99.7272C59.4145 99.7272 58.4392 109.975 55.5133 112.195C55.5133 112.195 55.5133 115.44 54.5381 116.465L53.1726 129.957C53.1726 129.957 55.1232 134.91 54.9282 135.764C54.7331 136.618 55.7084 139.35 55.5133 139.692C55.3183 140.034 46.1506 139.692 46.1506 139.692L48.1011 112.195L54.148 73.9381L62.5249 73.8876Z" fill="#2F2E41"/>
<path d="M45.4359 138.295C45.4359 138.295 41.3452 147.328 43.4795 148.418C45.6138 149.508 68.0238 148.729 68.0238 148.729C68.0238 148.729 71.7588 146.705 67.4902 145.303C67.4902 145.303 63.9331 145.147 61.621 143.901C59.3088 142.656 56.641 140.32 56.641 140.32C56.641 140.32 56.4631 136.894 55.0403 137.672C54.6146 137.918 54.2522 138.239 53.9766 138.614C53.7009 138.99 53.518 139.411 53.4395 139.852L45.4359 138.295Z" fill="#2F2E41"/>
<path d="M39.1285 137.07C39.1285 137.07 34.6422 146.976 36.9828 148.172C39.3235 149.367 63.9008 148.513 63.9008 148.513C63.9008 148.513 67.997 146.293 63.3156 144.756C63.3156 144.756 59.4145 144.585 56.8787 143.219C54.343 141.853 51.4171 139.291 51.4171 139.291C51.4171 139.291 51.2221 135.533 49.6616 136.387C49.1947 136.657 48.7974 137.008 48.495 137.42C48.1927 137.832 47.9921 138.295 47.9061 138.778L39.1285 137.07Z" fill="#2F2E41"/>
<path d="M57.2689 73.5368C57.2689 73.5368 55.1232 91.1281 54.1479 94.8855C53.5347 97.3598 53.1434 99.8724 52.9776 102.4C52.9776 102.4 52.7825 107.865 51.027 109.403C50.5134 109.848 50.1098 110.381 49.8414 110.968C49.5729 111.556 49.4453 112.186 49.4665 112.818C49.4665 112.818 47.711 130.068 48.6863 132.118C49.6616 134.167 50.9856 136.83 50.0103 138.196C49.0351 139.562 37.9581 138.608 37.9581 137.583C37.9581 136.558 37.9581 135.704 37.373 135.192C36.7878 134.679 37.373 131.434 37.373 131.434C37.373 131.434 35.0323 116.234 37.1779 111.794C39.3235 107.353 40.2988 95.2271 40.2988 95.2271C40.2988 95.2271 38.7384 81.3931 36.7878 79.1729C34.8372 76.9526 37.1779 69.0963 37.1779 69.0963L57.2689 73.5368Z" fill="#2F2E41"/>
<path d="M51.7772 18.9082C52.0039 19.3605 52.5467 19.6124 53.0408 19.8507C55.9046 21.2321 58.3018 23.235 60.6636 25.2148C60.0743 23.4661 60.1999 21.5923 61.0187 19.916C61.3007 19.3442 61.6703 18.7296 61.4687 18.1324C61.2699 17.7054 60.9242 17.3433 60.4796 17.0962C59.5159 16.4436 58.5086 15.8419 57.4631 15.2942C56.7328 14.9116 55.2312 13.8932 54.3931 14.004C54.3491 14.9955 54.3261 15.882 53.8302 16.8087C53.7126 17.0285 51.8638 19.0811 51.7772 18.9082Z" fill="#A0616A"/>
<path d="M61.7551 21.1045C66.1719 21.1045 69.7525 17.9694 69.7525 14.1021C69.7525 10.2348 66.1719 7.09973 61.7551 7.09973C57.3383 7.09973 53.7578 10.2348 53.7578 14.1021C53.7578 17.9694 57.3383 21.1045 61.7551 21.1045Z" fill="#A0616A"/>
<path d="M62.1453 30.6687C62.1453 30.6687 63.5107 24.6911 59.6096 22.6416C55.7084 20.5921 51.2221 18.2011 51.2221 18.2011C51.2221 18.2011 49.8567 18.0303 49.2715 20.5922C49.2715 20.5922 38.1532 22.4708 36.9829 31.6935C35.8125 40.9161 37.7631 54.4084 37.7631 54.4084C37.7631 54.4084 36.0076 66.1929 33.862 72.5121C33.862 72.5121 32.1064 73.8784 39.9088 71.8289C47.7111 69.7795 61.3651 77.6358 61.3651 77.6358C61.3651 77.6358 62.7305 76.4402 62.7305 75.5863C62.7305 74.7324 65.6564 48.7724 66.2415 46.3813C66.8267 43.9903 63.9008 31.0103 62.1453 30.6687Z" fill="#E6E6E6"/>
<path d="M59.8703 14.8235C60.3508 14.5903 60.8896 14.4647 61.4388 14.4577C61.9887 14.4505 62.5256 14.3104 62.9904 14.0529C63.7458 13.5451 63.8012 12.5637 64.3539 11.8846C65.154 10.9013 66.7501 10.783 68.1279 10.8322C68.9705 10.8623 69.878 10.9064 70.5876 10.5073C71.316 10.0976 71.6462 9.32574 71.8919 8.59882C72.1823 7.7392 72.3702 6.68797 71.6504 6.05042C71.1506 5.60772 70.3617 5.52015 69.8064 5.13135C69.5059 4.92093 65.5336 4.07597 61.8046 3.31622C59.9481 2.93857 57.998 3.1696 56.3229 3.9656C54.6478 4.7616 53.3638 6.06741 52.7138 7.63613C51.8527 9.70923 51.1148 11.6572 51.191 12.0779C51.5555 14.0916 53.5894 15.6922 53.7295 17.7273C53.8631 17.1653 54.1539 16.6412 54.5759 16.2019C54.9978 15.7626 55.5377 15.4218 56.1471 15.2102C56.2999 15.1448 56.4734 15.1264 56.6397 15.1579C56.8417 15.2145 56.9599 15.3912 57.0874 15.5397C57.4215 15.9286 58.4711 16.5187 59.0661 16.2428C59.5985 15.9959 59.201 15.2209 59.8703 14.8235Z" fill="#3F3D56"/>
<path d="M63.5275 51.6385C63.3601 51.7822 63.2643 51.978 63.2609 52.1832C63.2575 52.3885 63.3468 52.5866 63.5093 52.7345L69.1329 57.8308C69.2147 57.9049 69.3125 57.964 69.4206 58.0047C69.5287 58.0454 69.645 58.0669 69.7627 58.0679C69.8803 58.0689 69.9971 58.0494 70.1061 58.0105C70.2151 57.9716 70.3141 57.9142 70.3975 57.8415L87.5577 42.8814C87.6515 42.7996 87.7231 42.7006 87.7675 42.5915C87.8119 42.4824 87.8279 42.366 87.8143 42.2507C87.8007 42.1355 87.7579 42.0244 87.6889 41.9256C87.62 41.8267 87.5267 41.7426 87.4158 41.6794L80.6681 37.8312C80.4993 37.734 80.2976 37.6904 80.0965 37.7077C79.8955 37.725 79.7073 37.8022 79.5635 37.9264L63.5275 51.6385Z" fill="#3F3D56"/>
<path d="M87.6754 41.9067C87.6413 41.9525 87.6019 41.995 87.5577 42.0336L70.4379 57.2763C70.3545 57.349 70.2554 57.4065 70.1464 57.4454C70.0374 57.4842 69.9207 57.5037 69.803 57.5027C69.6853 57.5017 69.569 57.4803 69.4609 57.4396C69.3528 57.3989 69.255 57.3397 69.1732 57.2656L63.4286 51.9574C63.3894 51.9218 63.3543 51.883 63.3236 51.8415C63.2277 51.9853 63.1937 52.1543 63.2278 52.3181C63.2618 52.4819 63.3617 52.6296 63.5093 52.7346L69.1329 57.8309C69.2147 57.905 69.3125 57.9641 69.4206 58.0048C69.5287 58.0455 69.645 58.067 69.7626 58.068C69.8803 58.069 69.9971 58.0495 70.1061 58.0106C70.215 57.9717 70.3141 57.9143 70.3975 57.8416L87.5577 42.8815C87.7021 42.7555 87.7926 42.5899 87.814 42.4124C87.8355 42.2349 87.7865 42.0564 87.6753 41.9067H87.6754Z" fill="#FF7272"/>
<path d="M86.0865 42.0911L85.3882 41.7012C85.4617 41.816 85.4887 41.9492 85.4648 42.0791C85.4409 42.209 85.3674 42.328 85.2564 42.4167C85.1453 42.5054 85.0033 42.5586 84.8533 42.5675C84.7034 42.5765 84.5544 42.5408 84.4306 42.4661L79.9117 39.7459C79.809 39.6842 79.7281 39.5984 79.6784 39.4984C79.6286 39.3984 79.6119 39.2881 79.6303 39.1802C79.6486 39.0723 79.7012 38.9711 79.782 38.8881C79.8628 38.8051 79.9687 38.7437 80.0875 38.7108L79.7277 38.5099C79.681 38.4839 79.6255 38.4726 79.5705 38.478C79.5155 38.4834 79.4643 38.5052 79.4254 38.5397L64.2235 51.6203C64.2008 51.6404 64.1829 51.6643 64.1709 51.6905C64.1589 51.7167 64.153 51.7448 64.1536 51.773C64.1542 51.8013 64.1612 51.8292 64.1742 51.855C64.1873 51.8808 64.2061 51.9041 64.2296 51.9235L69.7505 56.6338C69.7963 56.6716 69.8571 56.6923 69.92 56.6915C69.9829 56.6907 70.043 56.6686 70.0875 56.6297L86.1272 42.4199C86.1529 42.3975 86.1725 42.3703 86.1846 42.3404C86.1967 42.3104 86.2009 42.2785 86.197 42.2469C86.1931 42.2154 86.1811 42.185 86.162 42.158C86.1429 42.131 86.1171 42.1081 86.0865 42.0911V42.0911Z" fill="white"/>
<path d="M68.5411 48.732L73.2047 52.582L84.2968 42.9863L78.6674 39.7781L68.5411 48.732Z" fill="#E6E6E6"/>
<path d="M83.866 45.3543C83.8967 45.38 83.9376 45.3944 83.9801 45.3944C84.0226 45.3944 84.0635 45.38 84.0942 45.3543L85.0642 44.505C85.0944 44.4785 85.1114 44.4425 85.1114 44.4051C85.1114 44.3676 85.0944 44.3317 85.0642 44.3052C85.0335 44.2795 84.9926 44.2651 84.9501 44.2651C84.9076 44.2651 84.8667 44.2795 84.836 44.3052L83.866 45.1545C83.8357 45.181 83.8188 45.217 83.8188 45.2544C83.8188 45.2919 83.8357 45.3278 83.866 45.3543V45.3543Z" fill="#3F3D56"/>
<path d="M82.2319 46.7852C82.2622 46.8116 82.3032 46.8265 82.346 46.8265C82.3888 46.8265 82.4298 46.8116 82.4601 46.7852L83.4301 45.9359C83.4602 45.9093 83.4771 45.8734 83.477 45.836C83.477 45.7986 83.46 45.7628 83.4298 45.7363C83.3996 45.7099 83.3586 45.695 83.3159 45.6949C83.2732 45.6949 83.2322 45.7097 83.2019 45.736L82.2319 46.5853C82.2017 46.6119 82.1847 46.6478 82.1847 46.6853C82.1847 46.7227 82.2017 46.7587 82.2319 46.7852V46.7852Z" fill="#3F3D56"/>
<path d="M68.6489 52.9904C69.2506 52.9904 69.7383 52.5634 69.7383 52.0366C69.7383 51.5098 69.2506 51.0828 68.6489 51.0828C68.0473 51.0828 67.5596 51.5098 67.5596 52.0366C67.5596 52.5634 68.0473 52.9904 68.6489 52.9904Z" fill="#FF7272"/>
<path d="M39.7136 46.7228C39.7136 46.7228 38.3482 54.2376 44.0049 53.5544C44.0049 53.5544 66.4365 49.1139 67.6069 50.1386C68.7772 51.1634 76.0532 51.5122 75.6736 47.192C75.2928 42.8572 67.997 45.3565 67.997 45.3565C67.997 45.3565 56.6837 46.7228 54.343 45.6981C52.0023 44.6734 45.3703 45.0149 45.3703 45.0149L39.7136 46.7228Z" fill="#A0616A"/>
<path d="M47.7111 22.9832C47.7111 22.9832 38.9335 23.8371 38.9335 34.9384V49.1139L49.6617 45.1858C49.6617 45.1858 54.148 35.9631 53.7579 33.4013C53.3678 30.8395 53.5628 23.3247 47.7111 22.9832Z" fill="#E6E6E6"/>
</g>
<defs>
<clipPath id="clip0">
<rect width="280" height="149" fill="white"/>
</clipPath>
</defs>
</svg>
