<svg width="100" height="100" viewBox="0 0 100 100" fill="none" xmlns="http://www.w3.org/2000/svg">
<rect width="100" height="100" fill="white"/>
<path d="M98.3871 12.9032H8.06451V17.7419H98.3871V12.9032Z" fill="#FF7272"/>
<path d="M91.9355 91.9355H95.1613C96.9435 91.9355 98.3871 90.492 98.3871 88.7097V82.2581H91.9355V91.9355Z" fill="#FF7272"/>
<path d="M33.871 80.6452H66.129V91.9355H37.0968L33.871 80.6452Z" fill="#FF7272"/>
<path d="M8.06453 37.0919H1.61292V53.221H8.06453V37.0919Z" fill="#FF7272"/>
<path d="M100 19.3548V11.2903C100 5.06613 94.9339 0 88.7097 0H26.2274C24.5629 0 22.9645 0.503226 21.6032 1.45645L9.89194 9.65645C7.7371 11.1629 6.45161 13.6323 6.45161 16.2613V19.3548H14.0645L10.0323 35.4839H3.22581C1.44839 35.4839 0 36.9306 0 38.7097V51.6129C0 53.3903 1.44839 54.8387 3.22581 54.8387H9.67742H11.671L12.55 58.0645H7.11935C5.21774 58.0645 3.43064 58.8048 2.08548 60.15C0.740322 61.4952 0 63.2839 0 65.1839V67.7419H12.4516L10.7919 74.3758C4.62258 75.3952 0 80.8097 0 87.0968C0 94.2113 5.78871 100 12.9032 100C17.95 100 22.5194 96.9855 24.6032 92.4936C25.8145 93.1597 27.1645 93.5484 28.5855 93.5484H35.8726H37.0968H66.971C69.579 97.4355 74.0113 100 79.0323 100C84.0532 100 88.4871 97.4355 91.0936 93.5484H95.1613C97.829 93.5484 100 91.3774 100 88.7097V64.5161H96.7742V19.3548H100ZM11.0629 12.9032H90.3226V9.67742H15.4855L23.4532 4.1C24.2694 3.52903 25.229 3.22581 26.2274 3.22581H88.7097C93.1565 3.22581 96.7742 6.84355 96.7742 11.2903V16.129H9.67903C9.7129 14.9081 10.2242 13.7677 11.0629 12.9032ZM75.2532 64.5161C73.0984 64.5161 71.0726 65.3565 69.55 66.879L69.3548 67.0742V58.0645H87.0968V64.5161H75.2532ZM87.0968 54.8387H69.3548C69.3548 52.171 71.5258 50 74.1936 50H87.0968V54.8387ZM87.0968 46.7742H74.1936C69.7468 46.7742 66.129 50.3919 66.129 54.8387V70.3L63.8484 72.5806H57.3871L53.2565 65.3532C51.8242 62.8468 49.1419 61.2903 46.2548 61.2903H30.1903L27.9661 53.3468L33.871 47.4419L36.5677 50.1387C37.5048 51.0758 38.8016 51.6129 40.1274 51.6129C42.9032 51.6129 45.1613 49.3548 45.1613 46.579C45.1613 45.2532 44.6242 43.9565 43.6871 43.0194L31.1742 30.5065C30.2371 29.5694 28.9403 29.0323 27.6145 29.0323C24.8387 29.0323 22.5806 31.2903 22.5806 34.0661C22.5806 35.3919 23.1177 36.6887 24.0548 37.6258L26.7516 40.3226L22.5484 44.5258C22.3839 42.0097 21.2581 39.7581 19.5306 38.129L23.8629 19.3548H87.0968V46.7742ZM20.5065 51.1306L29.0323 42.6032L31.5903 45.1613L25.1387 51.6129H20.0968C20.2371 51.4565 20.3758 51.2968 20.5065 51.1306ZM26.3355 35.3452C25.9984 35.0081 25.8065 34.5419 25.8065 34.0661C25.8065 33.0694 26.6177 32.2581 27.6145 32.2581C28.0903 32.2581 28.5564 32.45 28.8935 32.7871L41.4065 45.3C41.7435 45.6371 41.9355 46.1032 41.9355 46.579C41.9355 47.5758 41.1242 48.3871 40.1274 48.3871C39.6516 48.3871 39.1855 48.1952 38.8484 47.8581L26.3355 35.3452ZM20.5532 19.3548L16.6565 36.2419C15.6323 35.8097 14.5161 35.5597 13.35 35.5065L17.3871 19.3548H20.5532ZM3.22581 38.7097H6.45161V51.6129H3.22581V38.7097ZM9.67742 38.7097H12.9032C16.4613 38.7097 19.3548 41.6032 19.3548 45.1613C19.3548 48.7194 16.4613 51.6129 12.9032 51.6129H9.67742V38.7097ZM4.36613 62.4306C5.10161 61.6952 6.07903 61.2903 7.11935 61.2903H13.4306L14.3097 64.5161H3.28226C3.41774 63.7306 3.79194 63.0065 4.36613 62.4306ZM15.4952 68.8597L17.7581 77.1581L15.2516 87.1871C15.0258 88.0839 14.2242 88.7081 13.3 88.7081C12.1919 88.7097 11.2903 87.8097 11.2903 86.7C11.2903 86.0258 11.3742 85.3516 11.5355 84.6952L15.4952 68.8597ZM12.9032 96.7742C7.56613 96.7742 3.22581 92.4339 3.22581 87.0968C3.22581 82.8742 6.00645 79.1774 9.90968 77.9032L8.40645 83.9161C8.17903 84.8274 8.06452 85.7645 8.06452 86.7C8.06452 89.5871 10.4129 91.9355 13.3 91.9355C15.7065 91.9355 17.7968 90.3048 18.379 87.9694L19.4919 83.5177L20.5548 87.4145C20.8419 88.4694 21.3371 89.4565 22.0032 90.3177C20.6484 94.1355 16.9903 96.7742 12.9032 96.7742ZM28.5871 90.3226C27.2242 90.3226 25.9435 89.7919 24.9823 88.829C24.3548 88.2016 23.9016 87.4194 23.6677 86.5661L15.0145 54.8387H25.0339L34.9694 90.3226H28.5871ZM38.321 90.3226L36.5145 83.871H58.0645V80.6452H35.6113L31.0952 64.5161H46.2565C47.9871 64.5161 49.5968 65.45 50.4565 66.9548L55.5161 75.8064H65.1839L71.8306 69.1597C72.7435 68.2468 73.9597 67.7419 75.2532 67.7419H96.7742V80.6452H92.7016C90.7032 75.0161 85.3387 70.9677 79.0323 70.9677C72.7258 70.9677 67.3613 75.0161 65.3629 80.6452H61.2903V83.871H64.6113C64.5516 84.4016 64.5161 84.9387 64.5161 85.4839C64.5161 87.1823 64.8242 88.8064 65.3629 90.3226H38.321ZM79.0323 96.7742C72.8081 96.7742 67.7419 91.7081 67.7419 85.4839C67.7419 79.2597 72.8081 74.1936 79.0323 74.1936C85.2565 74.1936 90.3226 79.2597 90.3226 85.4839C90.3226 91.7097 85.2565 96.7742 79.0323 96.7742ZM95.1613 90.3226H92.7016C93.2403 88.8064 93.5484 87.1823 93.5484 85.4839C93.5484 84.9387 93.5129 84.4016 93.4532 83.871H96.7742V88.7097C96.7742 89.6 96.0516 90.3226 95.1613 90.3226ZM93.5484 64.5161H90.3226V19.3548H93.5484V64.5161Z" fill="#333333"/>
<path d="M79.0322 77.4194C74.5855 77.4194 70.9677 81.0371 70.9677 85.4839C70.9677 89.9307 74.5855 93.5484 79.0322 93.5484C83.479 93.5484 87.0967 89.9307 87.0967 85.4839C87.0967 81.0387 83.479 77.4194 79.0322 77.4194ZM79.0322 90.3226C76.3645 90.3226 74.1935 88.1516 74.1935 85.4839C74.1935 82.8161 76.3645 80.6452 79.0322 80.6452C81.7 80.6452 83.8709 82.8161 83.8709 85.4839C83.8709 88.1516 81.7 90.3226 79.0322 90.3226Z" fill="#333333"/>
</svg>
